<svg width="114" height="33" viewBox="0 0 114 33" fill="none" xmlns="http://www.w3.org/2000/svg">
<path d="M44.87 21.39V11.46H47.6V21.39H44.87ZM38.72 27V24.63H41.69V27H38.72ZM38.72 8.22V5.85H41.69V8.22H38.72ZM38.72 8.22V5.85H41.69V8.22H38.72ZM47.6 11.46H44.87C44.87 10.42 44.59 9.62 44.03 9.06C43.47 8.5 42.69 8.22 41.69 8.22V5.85C42.85 5.85 43.87 6.09 44.75 6.57C45.65 7.03 46.35 7.69 46.85 8.55C47.35 9.39 47.6 10.36 47.6 11.46ZM47.6 21.36C47.6 22.48 47.35 23.46 46.85 24.3C46.35 25.14 45.65 25.8 44.75 26.28C43.87 26.76 42.85 27 41.69 27V24.63C42.69 24.63 43.47 24.35 44.03 23.79C44.59 23.21 44.87 22.4 44.87 21.36H47.6ZM36.8 27V5.85H39.53V27H36.8ZM51.3383 27V11.85H54.0683V27H51.3383ZM52.6883 9.84C52.1883 9.84 51.7683 9.67 51.4283 9.33C51.0883 8.99 50.9183 8.57 50.9183 8.07C50.9183 7.57 51.0883 7.15 51.4283 6.81C51.7683 6.45 52.1883 6.27 52.6883 6.27C53.1883 6.27 53.6083 6.45 53.9483 6.81C54.3083 7.15 54.4883 7.57 54.4883 8.07C54.4883 8.57 54.3083 8.99 53.9483 9.33C53.6083 9.67 53.1883 9.84 52.6883 9.84ZM65.8738 27.54V11.85H68.6038V27.54H65.8738ZM57.4438 21.78V16.68H60.1738V21.78H57.4438ZM60.1738 16.68H57.4438C57.4438 15.68 57.6538 14.78 58.0737 13.98C58.4938 13.18 59.0638 12.55 59.7838 12.09C60.5238 11.63 61.3638 11.4 62.3038 11.4L62.9938 13.83C62.1738 13.83 61.4938 14.1 60.9538 14.64C60.4338 15.16 60.1738 15.84 60.1738 16.68ZM67.0738 16.74H65.8738C65.8738 15.88 65.6038 15.18 65.0638 14.64C64.5238 14.1 63.8338 13.83 62.9938 13.83L62.3038 11.4C63.2038 11.4 64.0138 11.63 64.7338 12.09C65.4738 12.55 66.0438 13.19 66.4438 14.01C66.8638 14.81 67.0738 15.72 67.0738 16.74ZM60.1738 21.78C60.1738 22.62 60.4338 23.31 60.9538 23.85C61.4938 24.37 62.1738 24.63 62.9938 24.63L62.3038 27.06C61.3638 27.06 60.5238 26.83 59.7838 26.37C59.0638 25.91 58.4938 25.28 58.0737 24.48C57.6538 23.68 57.4438 22.78 57.4438 21.78H60.1738ZM67.0738 21.69C67.0738 22.71 66.8638 23.63 66.4438 24.45C66.0438 25.25 65.4738 25.89 64.7338 26.37C64.0138 26.83 63.2038 27.06 62.3038 27.06L62.9938 24.63C63.8338 24.63 64.5238 24.36 65.0638 23.82C65.6038 23.28 65.8738 22.57 65.8738 21.69H67.0738ZM68.6038 27.45C68.6038 28.47 68.3638 29.38 67.8838 30.18C67.4038 31 66.7438 31.64 65.9038 32.1C65.0638 32.58 64.1138 32.82 63.0538 32.82V30.45C63.8738 30.45 64.5438 30.16 65.0638 29.58C65.6038 29.02 65.8738 28.31 65.8738 27.45H68.6038ZM60.2038 27.84C60.3038 28.72 60.6238 29.37 61.1638 29.79C61.7038 30.23 62.3338 30.45 63.0538 30.45V32.82C62.1338 32.82 61.2838 32.63 60.5037 32.25C59.7238 31.87 59.0838 31.34 58.5838 30.66C58.1038 29.98 57.8038 29.21 57.6838 28.35L60.2038 27.84ZM72.4027 27V11.85H75.1327V27H72.4027ZM73.7527 9.84C73.2527 9.84 72.8327 9.67 72.4927 9.33C72.1527 8.99 71.9827 8.57 71.9827 8.07C71.9827 7.57 72.1527 7.15 72.4927 6.81C72.8327 6.45 73.2527 6.27 73.7527 6.27C74.2527 6.27 74.6727 6.45 75.0127 6.81C75.3727 7.15 75.5527 7.57 75.5527 8.07C75.5527 8.57 75.3727 8.99 75.0127 9.33C74.6727 9.67 74.2527 9.84 73.7527 9.84ZM76.352 8.22V5.85H88.802V8.22H76.352ZM81.212 27V5.85H83.942V27H81.212ZM89.0684 20.25V18.3H99.2984V20.25H89.0684ZM93.7184 27.48V25.11H93.8684V27.48H93.7184ZM88.1984 21.63V17.22H90.9284V21.63H88.1984ZM96.5684 18.3V16.74H99.2984V18.3H96.5684ZM99.2984 16.74H96.5684C96.5684 15.86 96.2984 15.14 95.7584 14.58C95.2384 14.02 94.5584 13.74 93.7184 13.74V11.4C94.7984 11.4 95.7484 11.63 96.5684 12.09C97.4084 12.55 98.0684 13.19 98.5484 14.01C99.0484 14.81 99.2984 15.72 99.2984 16.74ZM96.6884 22.5L99.2384 23.01C99.1184 23.87 98.8084 24.64 98.3084 25.32C97.8084 26 97.1784 26.53 96.4184 26.91C95.6584 27.29 94.8084 27.48 93.8684 27.48V25.11C94.5884 25.11 95.2084 24.9 95.7284 24.48C96.2684 24.04 96.5884 23.38 96.6884 22.5ZM88.1984 17.25C88.1984 16.11 88.4384 15.11 88.9184 14.25C89.4184 13.37 90.0784 12.68 90.8984 12.18C91.7384 11.66 92.6884 11.4 93.7484 11.4V13.74C92.8684 13.74 92.1784 14.05 91.6784 14.67C91.1784 15.27 90.9284 16.13 90.9284 17.25H88.1984ZM88.1984 21.63H90.9284C90.9284 22.73 91.1784 23.59 91.6784 24.21C92.1784 24.81 92.8684 25.11 93.7484 25.11V27.48C92.6884 27.48 91.7384 27.23 90.8984 26.73C90.0784 26.21 89.4184 25.51 88.9184 24.63C88.4384 23.75 88.1984 22.75 88.1984 21.63ZM109.693 27L104.323 18.63L106.933 17.76L112.543 27H109.693ZM104.413 21.6L102.313 20.19L108.883 11.85H112.183L104.413 21.6ZM102.073 27V5.4H104.803V27H102.073Z" fill="#444444"/>
<path d="M22.5 7.5L18.5 4L11.5 11L22.5 22.5L18.5 26.5L22.5 30L29.5 22.5L18.5 11L22.5 7.5Z" fill="#444444"/>
<path d="M0 11L7 4L10.5 8L7 11L18 22L10.5 30L7 26.5L10.5 22L0 11Z" fill="#444444"/>
</svg>
