<svg width="90" height="26" viewBox="0 0 90 26" fill="none" xmlns="http://www.w3.org/2000/svg">
<path d="M9.375 20H0.585938V19.209H2.92969V3.21289H0.585938V2.42188H9.375V3.21289H7.03125V19.209H8.58398C8.99414 19.248 9.25781 19.5117 9.375 20ZM22.9395 20H13.2715V19.209H16.0547V3.21289H15.5566C14.8926 3.21289 14.3262 3.33984 13.8574 3.59375C13.1738 3.98438 12.6172 4.80469 12.1875 6.05469L11.2793 8.69141H10.4004L10.5176 2.42188H25.6934L25.8105 8.69141H24.9316L24.0234 6.05469C23.8867 5.68359 23.7598 5.36133 23.6426 5.08789C23.0566 3.83789 22.0605 3.21289 20.6543 3.21289H20.1562V19.209H22.1484C22.5586 19.248 22.8223 19.5117 22.9395 20ZM47.9297 6.37695C47.9297 6.76758 47.8613 7.16797 47.7246 7.57812C47.2363 8.94531 46.1133 9.91211 44.3555 10.4785C44.8242 10.5371 45.2734 10.625 45.7031 10.7422C48.0664 11.3672 49.248 12.7637 49.248 14.9316C49.248 15.9082 48.9551 16.8066 48.3691 17.627C47.1777 19.209 45.2441 20 42.5684 20H32.5488V19.209H34.8926V3.21289H32.5488V2.42188H42.041C43.1152 2.42188 44.0723 2.53906 44.9121 2.77344C46.9238 3.35938 47.9297 4.56055 47.9297 6.37695ZM40.4004 3.21289H38.9941V10.0684H40.6348C40.9863 10.0684 41.3184 10.0293 41.6309 9.95117C42.998 9.56055 43.6816 8.44727 43.6816 6.61133C43.6621 4.38477 42.5684 3.25195 40.4004 3.21289ZM41.3965 10.8887H38.9941V19.209H40.957C41.2109 19.209 41.4648 19.1895 41.7188 19.1504C43.75 18.8574 44.7656 17.3828 44.7656 14.7266C44.7656 14.1406 44.6777 13.5938 44.502 13.0859C43.9941 11.6211 42.959 10.8887 41.3965 10.8887ZM57.8906 19.2383C58.0078 19.2383 58.1152 19.248 58.2129 19.2676C58.4668 19.3066 58.5938 19.5508 58.5938 20H50.4199V19.2383C50.9668 19.2383 51.4062 19.1992 51.7383 19.1211C52.3828 18.9453 52.7051 18.457 52.7051 17.6562V1.71875H50.4199V0.957031H56.4258V19.2383H57.8906ZM64.0137 13.6426C64.0137 15.4785 64.1309 16.8164 64.3652 17.6562C64.7168 18.9062 65.498 19.5312 66.709 19.5312C67.3926 19.5312 67.9492 19.3262 68.3789 18.916C69.1211 18.1738 69.4922 16.377 69.4922 13.5254C69.4922 11.748 69.375 10.4492 69.1406 9.62891C68.7891 8.35938 67.9883 7.72461 66.7383 7.72461C65.9961 7.72461 65.4199 7.94922 65.0098 8.39844C64.3457 9.16016 64.0137 10.9082 64.0137 13.6426ZM66.8848 6.96289C68.5645 6.96289 70 7.42188 71.1914 8.33984C72.7344 9.57031 73.5059 11.2793 73.5059 13.4668C73.5059 15.1074 73.0176 16.5527 72.041 17.8027C70.7324 19.4629 68.9258 20.293 66.6211 20.293C64.9414 20.293 63.4961 19.7852 62.2852 18.7695C60.7617 17.4805 60 15.7324 60 13.5254C60 11.9629 60.4492 10.5957 61.3477 9.42383C62.6367 7.7832 64.4824 6.96289 66.8848 6.96289ZM79.3652 11.9141C79.3652 13.2617 79.4336 14.1992 79.5703 14.7266C79.8047 15.625 80.4004 16.0742 81.3574 16.0742C81.9434 16.0742 82.4023 15.9082 82.7344 15.5762C83.2031 15.0488 83.4375 13.7988 83.4375 11.8262C83.4375 10.5371 83.3691 9.61914 83.2324 9.07227C82.9785 8.17383 82.3633 7.72461 81.3867 7.72461C80.7812 7.72461 80.3223 7.90039 80.0098 8.25195C79.5801 8.75977 79.3652 9.98047 79.3652 11.9141ZM81.5039 6.96289C82.8711 6.96289 84.0234 7.25586 84.9609 7.8418C85.0391 7.62695 85.127 7.41211 85.2246 7.19727C85.791 6.02539 86.582 5.43945 87.5977 5.43945C87.9688 5.43945 88.3105 5.50781 88.623 5.64453C89.3066 5.9375 89.6484 6.43555 89.6484 7.13867C89.6484 7.23633 89.6387 7.33398 89.6191 7.43164C89.4824 7.97852 89.1211 8.25195 88.5352 8.25195C88.2812 8.25195 88.0078 8.13477 87.7148 7.90039C87.3438 7.56836 87.0312 7.40234 86.7773 7.40234C86.3086 7.42188 85.8984 7.70508 85.5469 8.25195C86.6016 9.16992 87.1387 10.3418 87.1582 11.7676C87.1582 12.8223 86.8457 13.7793 86.2207 14.6387C85.127 16.1035 83.5059 16.8359 81.3574 16.8359L78.2227 16.8066C78.1445 16.8066 78.0664 16.8164 77.9883 16.8359C77.5 16.8945 77.2559 17.1484 77.2559 17.5977C77.2559 17.6562 77.2656 17.7148 77.2852 17.7734C77.3828 18.2031 77.6855 18.4277 78.1934 18.4473L84.2578 18.5645C84.5312 18.5645 84.7949 18.584 85.0488 18.623C87.1973 18.8965 88.2715 20.0195 88.2715 21.9922C88.2715 22.5 88.125 22.9883 87.832 23.457C86.8945 24.9609 84.8242 25.7129 81.6211 25.7129C80.293 25.7129 79.1602 25.5371 78.2227 25.1855C76.8359 24.6582 76.1426 23.8672 76.1426 22.8125C76.1426 22.2266 76.3965 21.6309 76.9043 21.0254C76.2012 20.4395 75.8398 19.6777 75.8203 18.7402C75.8203 18.3496 75.8984 17.959 76.0547 17.5684C76.5039 16.5332 77.3047 16.0254 78.457 16.0449H78.4863C78.2129 15.8887 77.9492 15.7129 77.6953 15.5176C76.3281 14.4629 75.6445 13.2324 75.6445 11.8262C75.6445 10.8301 75.9375 9.93164 76.5234 9.13086C77.5781 7.68555 79.2383 6.96289 81.5039 6.96289ZM81.6211 24.9219C82.5391 24.9219 83.3789 24.8438 84.1406 24.6875C85.957 24.3359 86.8652 23.7012 86.8652 22.7832C86.8652 22.5879 86.8262 22.4219 86.748 22.2852C86.5527 21.9336 85.8887 21.7578 84.7559 21.7578L78.8379 21.6992C78.4082 21.6992 77.998 21.6211 77.6074 21.4648C77.3145 21.875 77.168 22.2852 77.168 22.6953C77.168 22.9102 77.2168 23.125 77.3145 23.3398C77.8027 24.3945 79.2383 24.9219 81.6211 24.9219Z" fill="black" fill-opacity="0.7"/>
</svg>
