<svg width="1280" height="920" viewBox="0 0 1280 920" fill="none" xmlns="http://www.w3.org/2000/svg">
<path d="M503.359 39.3259C503.359 39.3259 611.177 17.9113 708 20.5C830.425 23.7733 885.069 78.8481 1006.1 93.8603C1070.74 101.878 1174.44 14.0841 1238.5 3.50004C1289.44 -4.9175 1333.84 60.7222 1333.84 60.7222V509H494.838L503.359 39.3259Z" fill="#D9D9D9"/>
<path d="M0 120.713C0 120.713 201.463 19.311 351.044 24.3699C540.179 30.7666 589.701 79.3954 776.686 108.732C876.55 124.4 954.674 23.644 1053.63 2.96056C1132.34 -13.489 1283 43.9737 1283 43.9737V920H0V120.713Z" fill="#F9F4F4"/>
<mask id="mask0_2605_3" style="mask-type:alpha" maskUnits="userSpaceOnUse" x="0" y="0" width="1283" height="920">
<path d="M0 120.713C0 120.713 201.463 19.311 351.044 24.3699C540.179 30.7666 589.701 79.3954 776.686 108.732C876.55 124.4 954.674 23.644 1053.63 2.96056C1132.34 -13.489 1283 43.9737 1283 43.9737V920H0V120.713Z" fill="#F9F4F4"/>
</mask>
<g mask="url(#mask0_2605_3)">
<path fill-rule="evenodd" clip-rule="evenodd" d="M992.991 922.518L991.991 922.511C991.997 921.675 992 920.838 992 920C992 919.162 991.997 918.325 991.991 917.488L992.991 917.481C992.997 918.32 993 919.16 993 920C993 920.84 992.997 921.68 992.991 922.518ZM992.921 912.456L991.921 912.477C991.886 910.81 991.839 909.145 991.78 907.484L992.78 907.449C992.838 909.115 992.885 910.784 992.921 912.456ZM992.569 902.459L991.57 902.508C991.488 900.836 991.394 899.168 991.289 897.503L992.287 897.439C992.393 899.109 992.487 900.783 992.569 902.459ZM991.933 892.434L990.936 892.511C990.807 890.85 990.667 889.193 990.515 887.539L991.51 887.447C991.663 889.106 991.804 890.768 991.933 892.434ZM991.017 882.466L990.022 882.571C989.846 880.908 989.657 879.249 989.457 877.593L990.45 877.473C990.65 879.134 990.839 880.798 991.017 882.466ZM989.813 872.501L988.822 872.635C988.599 870.987 988.365 869.342 988.119 867.7L989.108 867.552C989.355 869.198 989.59 870.848 989.813 872.501ZM988.328 862.592L987.342 862.754C987.07 861.106 986.788 859.463 986.494 857.823L987.478 857.646C987.773 859.291 988.056 860.939 988.328 862.592ZM986.559 852.725L985.578 852.915C985.26 851.28 984.931 849.649 984.591 848.021L985.57 847.817C985.911 849.449 986.241 851.085 986.559 852.725ZM984.507 842.908L983.531 843.127C983.167 841.5 982.791 839.877 982.403 838.258L983.376 838.025C983.764 839.649 984.141 841.276 984.507 842.908ZM982.177 833.169L981.208 833.415C980.796 831.797 980.373 830.183 979.939 828.574L980.904 828.313C981.34 829.927 981.764 831.546 982.177 833.169ZM979.562 823.48L978.601 823.754C978.143 822.152 977.675 820.555 977.196 818.962L978.153 818.674C978.634 820.271 979.104 821.873 979.562 823.48ZM976.675 813.888L975.722 814.19C975.217 812.598 974.702 811.011 974.176 809.429L975.125 809.114C975.652 810.7 976.169 812.292 976.675 813.888ZM973.508 804.37C972.959 802.794 972.398 801.223 971.827 799.657L970.887 800C971.457 801.561 972.016 803.128 972.564 804.699L973.508 804.37ZM970.072 794.954L969.137 795.31C968.543 793.752 967.938 792.199 967.322 790.651L968.251 790.281C968.869 791.833 969.476 793.391 970.072 794.954ZM966.366 785.641L965.442 786.025C964.804 784.485 964.154 782.95 963.495 781.422L964.413 781.025C965.074 782.558 965.725 784.097 966.366 785.641ZM962.392 776.434L961.479 776.843C960.797 775.323 960.104 773.808 959.401 772.299L960.307 771.877C961.012 773.39 961.707 774.909 962.392 776.434ZM958.159 767.353L957.259 767.789C956.532 766.286 955.795 764.79 955.048 763.3L955.941 762.852C956.691 764.346 957.43 765.847 958.159 767.353ZM953.662 758.387L952.775 758.848C952.007 757.37 951.228 755.898 950.44 754.433L951.321 753.959C952.111 755.429 952.892 756.905 953.662 758.387ZM948.914 749.56L948.04 750.046C947.229 748.589 946.408 747.138 945.577 745.694L946.444 745.196C947.277 746.644 948.1 748.099 948.914 749.56ZM943.914 740.87L943.054 741.381C942.203 739.949 941.341 738.524 940.47 737.105L941.322 736.582C942.196 738.005 943.06 739.434 943.914 740.87ZM938.667 732.326L937.822 732.862C936.93 731.454 936.028 730.054 935.116 728.66L935.953 728.112C936.867 729.51 937.772 730.915 938.667 732.326ZM933.181 723.94L932.352 724.499C931.419 723.117 930.477 721.741 929.526 720.373L930.346 719.802C931.301 721.174 932.246 722.553 933.181 723.94ZM927.454 715.707L926.642 716.29C925.671 714.936 924.691 713.589 923.701 712.25L924.506 711.655C925.498 712.999 926.481 714.349 927.454 715.707ZM921.499 707.645L920.703 708.25C919.693 706.924 918.675 705.605 917.647 704.293L918.434 703.676C919.465 704.992 920.486 706.314 921.499 707.645ZM915.315 699.753L914.536 700.381C913.49 699.085 912.435 697.796 911.371 696.514L912.14 695.875C913.207 697.16 914.265 698.453 915.315 699.753ZM908.909 692.041L908.149 692.691C907.066 691.424 905.974 690.166 904.874 688.915L905.625 688.254C906.728 689.509 907.823 690.771 908.909 692.041ZM902.288 684.515L901.546 685.186C900.428 683.951 899.301 682.723 898.165 681.504L898.897 680.822C900.036 682.045 901.166 683.276 902.288 684.515ZM895.454 677.178L894.732 677.87C893.579 676.667 892.418 675.473 891.248 674.286L891.96 673.584C893.133 674.774 894.298 675.972 895.454 677.178ZM888.416 670.04L887.714 670.752C886.527 669.582 885.333 668.421 884.13 667.268L884.822 666.546C886.028 667.702 887.226 668.867 888.416 670.04ZM881.178 663.103L880.496 663.835C879.277 662.699 878.049 661.572 876.814 660.454L877.485 659.712C878.724 660.834 879.955 661.964 881.178 663.103ZM873.746 656.375L873.085 657.126C871.834 656.026 870.576 654.934 869.309 653.851L869.959 653.091C871.229 654.177 872.491 655.272 873.746 656.375ZM866.125 649.86L865.486 650.629C864.204 649.565 862.915 648.51 861.619 647.464L862.247 646.685C863.547 647.735 864.84 648.793 866.125 649.86ZM858.324 643.566L857.707 644.353C856.395 643.325 855.076 642.307 853.75 641.297L854.355 640.501C855.686 641.514 857.008 642.535 858.324 643.566ZM850.345 637.494L849.75 638.299C848.411 637.309 847.064 636.329 845.71 635.358L846.293 634.545C847.651 635.519 849.001 636.502 850.345 637.494ZM842.198 631.653L841.627 632.474C840.258 631.523 838.883 630.58 837.501 629.648L838.06 628.819C839.446 629.754 840.826 630.699 842.198 631.653ZM833.888 626.047L833.34 626.884C831.946 625.972 830.545 625.07 829.138 624.178L829.673 623.333C831.085 624.228 832.49 625.132 833.888 626.047ZM825.418 620.678L824.895 621.53C823.476 620.659 822.05 619.797 820.618 618.946L821.129 618.086C822.566 618.94 823.995 619.804 825.418 620.678ZM816.804 615.556L816.305 616.423C814.861 615.592 813.411 614.771 811.954 613.96L812.44 613.086C813.901 613.899 815.356 614.723 816.804 615.556ZM808.041 610.679L807.567 611.56C806.102 610.771 804.63 609.993 803.152 609.225L803.613 608.338C805.095 609.108 806.571 609.889 808.041 610.679ZM799.148 606.058C797.654 605.309 796.153 604.57 794.646 603.841L794.211 604.741C795.713 605.468 797.209 606.205 798.7 606.952L799.148 606.058ZM790.123 601.693L789.701 602.599C788.192 601.896 786.677 601.203 785.157 600.521L785.566 599.608C787.091 600.293 788.61 600.987 790.123 601.693ZM780.974 597.587L780.578 598.505C779.049 597.845 777.515 597.196 775.975 596.558L776.358 595.634C777.902 596.274 779.441 596.925 780.974 597.587ZM771.718 593.749L771.349 594.678C769.801 594.062 768.248 593.457 766.689 592.863L767.046 591.928C768.609 592.524 770.166 593.131 771.718 593.749ZM762.343 590.173L762 591.113C760.439 590.543 758.872 589.984 757.3 589.436L757.63 588.491C759.206 589.041 760.777 589.602 762.343 590.173ZM752.886 586.875L752.57 587.824C750.988 587.298 749.401 586.782 747.81 586.278L748.112 585.325C749.708 585.831 751.299 586.347 752.886 586.875ZM743.325 583.847L743.037 584.804C741.445 584.325 739.847 583.856 738.246 583.399L738.52 582.438C740.126 582.896 741.728 583.366 743.325 583.847ZM733.686 581.096L733.426 582.061C731.816 581.627 730.203 581.204 728.584 580.792L728.831 579.823C730.454 580.236 732.072 580.66 733.686 581.096ZM723.974 578.624L723.742 579.596C722.123 579.209 720.5 578.833 718.873 578.469L719.091 577.493C720.723 577.858 722.351 578.236 723.974 578.624ZM714.183 576.43L713.978 577.409C712.351 577.068 710.72 576.74 709.084 576.422L709.275 575.44C710.915 575.759 712.551 576.089 714.183 576.43ZM704.353 574.522L704.177 575.506C702.537 575.212 700.893 574.929 699.245 574.658L699.408 573.672C701.06 573.943 702.708 574.227 704.353 574.522ZM694.447 572.892L694.299 573.881C692.658 573.635 691.013 573.401 689.364 573.177L689.498 572.187C691.151 572.41 692.801 572.645 694.447 572.892ZM684.526 571.55L684.407 572.543C682.751 572.343 681.091 572.154 679.428 571.978L679.534 570.983C681.202 571.161 682.866 571.35 684.526 571.55ZM674.552 570.489L674.46 571.485C672.806 571.333 671.149 571.193 669.488 571.064L669.566 570.067C671.231 570.196 672.893 570.337 674.552 570.489ZM664.56 569.713L664.497 570.711C662.831 570.606 661.163 570.512 659.492 570.429L659.541 569.431C661.217 569.513 662.89 569.607 664.56 569.713ZM654.551 569.22L654.516 570.22C652.854 570.161 651.189 570.114 649.522 570.079L649.543 569.079C651.215 569.115 652.884 569.162 654.551 569.22ZM644.518 569.009L644.511 570.009C643.675 570.003 642.838 570 642 570C641.162 570 640.325 570.003 639.488 570.009L639.481 569.009C640.32 569.003 641.16 569 642 569C642.84 569 643.68 569.003 644.518 569.009ZM634.456 569.079L634.477 570.079C632.81 570.114 631.145 570.161 629.484 570.22L629.449 569.22C631.115 569.162 632.784 569.115 634.456 569.079ZM624.459 569.431L624.508 570.429C622.836 570.512 621.168 570.606 619.503 570.711L619.439 569.713C621.109 569.607 622.783 569.513 624.459 569.431ZM614.434 570.067L614.511 571.064C612.85 571.193 611.193 571.333 609.539 571.485L609.447 570.489C611.106 570.337 612.768 570.196 614.434 570.067ZM604.466 570.983L604.571 571.978C602.908 572.155 601.249 572.343 599.593 572.543L599.473 571.55C601.134 571.35 602.798 571.161 604.466 570.983ZM594.501 572.187L594.635 573.178C592.987 573.401 591.342 573.635 589.7 573.881L589.552 572.892C591.198 572.645 592.848 572.41 594.501 572.187ZM584.592 573.672L584.754 574.658C583.106 574.929 581.463 575.212 579.823 575.506L579.646 574.522C581.291 574.227 582.939 573.944 584.592 573.672ZM574.725 575.441C573.085 575.759 571.449 576.089 569.817 576.43L570.021 577.409C571.649 577.069 573.28 576.74 574.915 576.422L574.725 575.441ZM564.908 577.493L565.127 578.469C563.5 578.833 561.877 579.209 560.258 579.597L560.025 578.624C561.649 578.236 563.276 577.859 564.908 577.493ZM555.169 579.823L555.415 580.792C553.797 581.204 552.183 581.627 550.574 582.061L550.313 581.096C551.927 580.66 553.546 580.236 555.169 579.823ZM545.48 582.438L545.754 583.399C544.152 583.857 542.555 584.325 540.962 584.804L540.674 583.847C542.271 583.366 543.873 582.896 545.48 582.438ZM535.888 585.325L536.19 586.278C534.598 586.783 533.011 587.298 531.429 587.824L531.114 586.875C532.7 586.347 534.292 585.831 535.888 585.325ZM526.37 588.492L526.699 589.436C525.128 589.984 523.561 590.543 522 591.113L521.657 590.173C523.223 589.602 524.794 589.041 526.37 588.492ZM516.954 591.928L517.31 592.863C515.752 593.457 514.199 594.062 512.651 594.678L512.281 593.749C513.833 593.131 515.391 592.524 516.954 591.928ZM507.641 595.634L508.025 596.558C506.485 597.196 504.95 597.846 503.422 598.505L503.025 597.587C504.558 596.926 506.097 596.274 507.641 595.634ZM498.434 599.608L498.843 600.521C497.323 601.203 495.808 601.896 494.299 602.599L493.877 601.693C495.39 600.988 496.909 600.293 498.434 599.608ZM489.353 603.841L489.789 604.741C488.286 605.468 486.79 606.205 485.3 606.952L484.852 606.059C486.346 605.309 487.847 604.57 489.353 603.841ZM480.387 608.338L480.848 609.225C479.37 609.993 477.898 610.772 476.433 611.56L475.959 610.679C477.429 609.889 478.905 609.108 480.387 608.338ZM471.56 613.086L472.046 613.96C470.589 614.771 469.138 615.592 467.694 616.423L467.196 615.556C468.644 614.723 470.099 613.9 471.56 613.086ZM462.87 618.086L463.381 618.946C461.949 619.797 460.524 620.659 459.105 621.53L458.582 620.678C460.005 619.804 461.434 618.94 462.87 618.086ZM454.326 623.333L454.862 624.178C453.454 625.07 452.054 625.972 450.66 626.884L450.112 626.047C451.51 625.133 452.915 624.228 454.326 623.333ZM445.94 628.819L446.499 629.648C445.117 630.581 443.741 631.523 442.373 632.474L441.802 631.654C443.174 630.699 444.553 629.754 445.94 628.819ZM437.707 634.546L438.29 635.358C436.936 636.329 435.589 637.309 434.25 638.299L433.655 637.494C434.999 636.502 436.349 635.519 437.707 634.546ZM429.645 640.501L430.25 641.297C428.924 642.307 427.605 643.325 426.293 644.353L425.676 643.566C426.992 642.535 428.314 641.514 429.645 640.501ZM421.753 646.685L422.381 647.464C421.085 648.51 419.796 649.565 418.514 650.629L417.875 649.86C419.16 648.793 420.453 647.735 421.753 646.685ZM414.041 653.091L414.691 653.851C413.424 654.934 412.166 656.026 410.915 657.126L410.254 656.375C411.509 655.272 412.771 654.177 414.041 653.091ZM406.515 659.712L407.186 660.454C405.951 661.572 404.723 662.699 403.504 663.835L402.822 663.103C404.045 661.964 405.276 660.834 406.515 659.712ZM399.178 666.546C397.972 667.702 396.774 668.867 395.584 670.04L396.286 670.752C397.473 669.582 398.667 668.421 399.87 667.268L399.178 666.546ZM392.04 673.584L392.752 674.286C391.582 675.473 390.421 676.667 389.268 677.87L388.546 677.178C389.702 675.972 390.867 674.774 392.04 673.584ZM385.103 680.822L385.835 681.504C384.699 682.723 383.572 683.951 382.454 685.186L381.712 684.515C382.834 683.276 383.964 682.045 385.103 680.822ZM378.375 688.254L379.126 688.915C378.026 690.166 376.934 691.424 375.851 692.691L375.091 692.041C376.177 690.771 377.272 689.509 378.375 688.254ZM371.86 695.875L372.629 696.514C371.565 697.796 370.51 699.085 369.464 700.381L368.685 699.753C369.735 698.453 370.793 697.16 371.86 695.875ZM365.566 703.676L366.353 704.293C365.325 705.605 364.307 706.924 363.297 708.25L362.501 707.645C363.514 706.314 364.535 704.992 365.566 703.676ZM359.494 711.655L360.299 712.25C359.309 713.589 358.329 714.936 357.358 716.29L356.545 715.707C357.519 714.349 358.502 712.999 359.494 711.655ZM353.653 719.802L354.474 720.373C353.523 721.742 352.58 723.117 351.648 724.499L350.819 723.94C351.754 722.554 352.699 721.174 353.653 719.802ZM348.047 728.113L348.884 728.66C347.972 730.054 347.07 731.455 346.178 732.862L345.333 732.327C346.228 730.915 347.132 729.51 348.047 728.113ZM342.678 736.582L343.53 737.105C342.659 738.524 341.797 739.95 340.946 741.382L340.086 740.871C340.94 739.434 341.804 738.005 342.678 736.582ZM337.556 745.196L338.423 745.695C337.592 747.139 336.771 748.589 335.96 750.046L335.086 749.56C335.899 748.099 336.723 746.644 337.556 745.196ZM332.679 753.959L333.56 754.433C332.771 755.898 331.993 757.37 331.225 758.848L330.338 758.387C331.108 756.905 331.889 755.429 332.679 753.959ZM328.058 762.852L328.952 763.3C328.205 764.791 327.468 766.287 326.741 767.789L325.841 767.354C326.57 765.847 327.309 764.346 328.058 762.852ZM323.693 771.877L324.599 772.299C323.896 773.808 323.203 775.323 322.521 776.843L321.608 776.434C322.293 774.909 322.987 773.39 323.693 771.877ZM319.587 781.026L320.505 781.422C319.845 782.951 319.196 784.485 318.558 786.025L317.634 785.642C318.274 784.098 318.925 782.559 319.587 781.026ZM315.749 790.282L316.678 790.651C316.062 792.199 315.457 793.752 314.863 795.311L313.928 794.954C314.524 793.391 315.131 791.834 315.749 790.282ZM312.173 799.657L313.113 800C312.543 801.561 311.984 803.128 311.436 804.7L310.491 804.37C311.041 802.794 311.602 801.223 312.173 799.657ZM308.875 809.114L309.824 809.43C309.298 811.012 308.782 812.599 308.278 814.19L307.325 813.888C307.831 812.292 308.347 810.701 308.875 809.114ZM305.847 818.675C305.366 820.272 304.896 821.874 304.438 823.48L305.399 823.754C305.856 822.153 306.325 820.555 306.804 818.963L305.847 818.675ZM303.096 828.314L304.061 828.574C303.627 830.184 303.204 831.797 302.792 833.416L301.823 833.169C302.236 831.546 302.66 829.928 303.096 828.314ZM300.624 838.026L301.596 838.258C301.209 839.877 300.833 841.5 300.469 843.127L299.493 842.909C299.858 841.277 300.236 839.649 300.624 838.026ZM298.43 847.817L299.409 848.022C299.068 849.649 298.74 851.28 298.422 852.916L297.44 852.725C297.759 851.085 298.089 849.449 298.43 847.817ZM296.522 857.647L297.506 857.823C297.212 859.463 296.929 861.107 296.658 862.755L295.672 862.592C295.943 860.94 296.227 859.292 296.522 857.647ZM294.892 867.553L295.881 867.701C295.635 869.342 295.401 870.987 295.177 872.636L294.187 872.502C294.41 870.849 294.645 869.199 294.892 867.553ZM293.55 877.473L294.543 877.593C294.343 879.249 294.154 880.909 293.978 882.572L292.983 882.466C293.161 880.798 293.35 879.134 293.55 877.473ZM292.489 887.448L293.485 887.54C293.333 889.194 293.193 890.851 293.064 892.512L292.067 892.434C292.196 890.769 292.337 889.107 292.489 887.448ZM291.713 897.44L292.711 897.503C292.606 899.169 292.512 900.837 292.429 902.508L291.431 902.459C291.513 900.783 291.607 899.11 291.713 897.44ZM291.22 907.449L292.22 907.484C292.161 909.146 292.114 910.811 292.079 912.478L291.079 912.457C291.115 910.785 291.162 909.116 291.22 907.449ZM291.009 917.482C291.003 918.32 291 919.16 291 920C291 920.84 291.003 921.68 291.009 922.519L292.009 922.512C292.003 921.675 292 920.838 292 920C292 919.162 292.003 918.325 292.009 917.489L291.009 917.482ZM291.079 927.544L292.079 927.523C292.114 929.19 292.161 930.855 292.22 932.516L291.22 932.551C291.162 930.885 291.115 929.216 291.079 927.544ZM291.431 937.541L292.429 937.492C292.512 939.164 292.606 940.832 292.711 942.497L291.713 942.561C291.607 940.891 291.513 939.217 291.431 937.541ZM292.067 947.566L293.064 947.489C293.193 949.15 293.333 950.807 293.485 952.461L292.489 952.553C292.337 950.894 292.196 949.232 292.067 947.566ZM292.983 957.534L293.978 957.429C294.155 959.092 294.343 960.751 294.543 962.407L293.55 962.527C293.35 960.866 293.161 959.202 292.983 957.534ZM294.187 967.499L295.178 967.365C295.401 969.013 295.635 970.658 295.881 972.3L294.892 972.448C294.645 970.802 294.41 969.152 294.187 967.499ZM295.672 977.408L296.658 977.246C296.929 978.894 297.212 980.537 297.506 982.177L296.522 982.354C296.227 980.709 295.944 979.061 295.672 977.408ZM297.441 987.275C297.759 988.915 298.089 990.551 298.43 992.183L299.409 991.979C299.069 990.351 298.74 988.72 298.422 987.085L297.441 987.275ZM299.493 997.092L300.469 996.873C300.833 998.5 301.209 1000.12 301.597 1001.74L300.624 1001.97C300.236 1000.35 299.859 998.724 299.493 997.092ZM301.823 1006.83L302.792 1006.58C303.204 1008.2 303.627 1009.82 304.061 1011.43L303.096 1011.69C302.66 1010.07 302.236 1008.45 301.823 1006.83ZM304.438 1016.52L305.399 1016.25C305.857 1017.85 306.325 1019.45 306.804 1021.04L305.847 1021.33C305.366 1019.73 304.896 1018.13 304.438 1016.52ZM307.325 1026.11L308.278 1025.81C308.783 1027.4 309.298 1028.99 309.824 1030.57L308.875 1030.89C308.347 1029.3 307.831 1027.71 307.325 1026.11ZM310.492 1035.63L311.436 1035.3C311.984 1036.87 312.543 1038.44 313.113 1040L312.173 1040.34C311.602 1038.78 311.041 1037.21 310.492 1035.63ZM313.928 1045.05L314.863 1044.69C315.457 1046.25 316.062 1047.8 316.678 1049.35L315.749 1049.72C315.131 1048.17 314.524 1046.61 313.928 1045.05ZM317.634 1054.36L318.558 1053.98C319.196 1055.52 319.846 1057.05 320.505 1058.58L319.587 1058.97C318.926 1057.44 318.274 1055.9 317.634 1054.36ZM321.608 1063.57L322.521 1063.16C323.203 1064.68 323.896 1066.19 324.599 1067.7L323.693 1068.12C322.988 1066.61 322.293 1065.09 321.608 1063.57ZM325.841 1072.65L326.741 1072.21C327.468 1073.71 328.205 1075.21 328.952 1076.7L328.059 1077.15C327.309 1075.65 326.57 1074.15 325.841 1072.65ZM330.338 1081.61L331.225 1081.15C331.993 1082.63 332.772 1084.1 333.56 1085.57L332.679 1086.04C331.889 1084.57 331.108 1083.1 330.338 1081.61ZM335.086 1090.44L335.96 1089.95C336.771 1091.41 337.592 1092.86 338.423 1094.31L337.556 1094.8C336.723 1093.36 335.9 1091.9 335.086 1090.44ZM340.086 1099.13L340.946 1098.62C341.797 1100.05 342.659 1101.48 343.53 1102.9L342.678 1103.42C341.804 1102 340.94 1100.57 340.086 1099.13ZM345.333 1107.67C346.228 1109.09 347.133 1110.49 348.047 1111.89L348.884 1111.34C347.972 1109.95 347.07 1108.55 346.178 1107.14L345.333 1107.67ZM350.819 1116.06L351.648 1115.5C352.581 1116.88 353.523 1118.26 354.474 1119.63L353.654 1120.2C352.699 1118.83 351.754 1117.45 350.819 1116.06ZM356.546 1124.29L357.358 1123.71C358.329 1125.06 359.309 1126.41 360.299 1127.75L359.494 1128.34C358.502 1127 357.519 1125.65 356.546 1124.29ZM362.501 1132.36L363.297 1131.75C364.307 1133.08 365.325 1134.4 366.353 1135.71L365.566 1136.32C364.535 1135.01 363.514 1133.69 362.501 1132.36ZM368.685 1140.25L369.464 1139.62C370.51 1140.92 371.565 1142.2 372.629 1143.49L371.86 1144.12C370.793 1142.84 369.735 1141.55 368.685 1140.25ZM375.091 1147.96L375.851 1147.31C376.934 1148.58 378.026 1149.83 379.126 1151.09L378.375 1151.75C377.272 1150.49 376.177 1149.23 375.091 1147.96ZM381.712 1155.49L382.454 1154.81C383.572 1156.05 384.699 1157.28 385.835 1158.5L385.103 1159.18C383.964 1157.95 382.834 1156.72 381.712 1155.49ZM388.546 1162.82C389.702 1164.03 390.867 1165.23 392.04 1166.42L392.752 1165.71C391.582 1164.53 390.421 1163.33 389.268 1162.13L388.546 1162.82ZM395.584 1169.96L396.286 1169.25C397.473 1170.42 398.667 1171.58 399.87 1172.73L399.178 1173.45C397.972 1172.3 396.774 1171.13 395.584 1169.96ZM402.822 1176.9L403.504 1176.17C404.723 1177.3 405.951 1178.43 407.186 1179.55L406.515 1180.29C405.276 1179.17 404.045 1178.04 402.822 1176.9ZM410.254 1183.62L410.915 1182.87C412.166 1183.97 413.424 1185.07 414.691 1186.15L414.041 1186.91C412.771 1185.82 411.509 1184.73 410.254 1183.62ZM417.875 1190.14L418.514 1189.37C419.796 1190.43 421.085 1191.49 422.381 1192.54L421.753 1193.31C420.453 1192.27 419.16 1191.21 417.875 1190.14ZM425.676 1196.43C426.992 1197.46 428.314 1198.49 429.645 1199.5L430.25 1198.7C428.924 1197.69 427.605 1196.67 426.293 1195.65L425.676 1196.43ZM433.655 1202.51L434.25 1201.7C435.589 1202.69 436.936 1203.67 438.29 1204.64L437.707 1205.45C436.349 1204.48 434.999 1203.5 433.655 1202.51ZM441.802 1208.35L442.373 1207.53C443.742 1208.48 445.117 1209.42 446.499 1210.35L445.94 1211.18C444.554 1210.25 443.174 1209.3 441.802 1208.35ZM450.113 1213.95L450.66 1213.12C452.054 1214.03 453.455 1214.93 454.862 1215.82L454.327 1216.67C452.915 1215.77 451.51 1214.87 450.113 1213.95ZM458.582 1219.32L459.105 1218.47C460.524 1219.34 461.95 1220.2 463.382 1221.05L462.871 1221.91C461.434 1221.06 460.005 1220.2 458.582 1219.32ZM467.196 1224.44L467.695 1223.58C469.139 1224.41 470.589 1225.23 472.046 1226.04L471.56 1226.91C470.099 1226.1 468.644 1225.28 467.196 1224.44ZM475.959 1229.32L476.433 1228.44C477.898 1229.23 479.37 1230.01 480.848 1230.77L480.387 1231.66C478.905 1230.89 477.429 1230.11 475.959 1229.32ZM484.852 1233.94L485.3 1233.05C486.791 1233.8 488.287 1234.53 489.789 1235.26L489.354 1236.16C487.847 1235.43 486.346 1234.69 484.852 1233.94ZM493.877 1238.31L494.299 1237.4C495.808 1238.1 497.323 1238.8 498.843 1239.48L498.434 1240.39C496.909 1239.71 495.39 1239.01 493.877 1238.31ZM503.026 1242.41L503.422 1241.49C504.951 1242.15 506.485 1242.8 508.025 1243.44L507.642 1244.37C506.098 1243.73 504.559 1243.07 503.026 1242.41ZM512.282 1246.25L512.651 1245.32C514.199 1245.94 515.752 1246.54 517.311 1247.14L516.954 1248.07C515.391 1247.48 513.834 1246.87 512.282 1246.25ZM521.657 1249.83L522 1248.89C523.561 1249.46 525.128 1250.02 526.7 1250.56L526.37 1251.51C524.794 1250.96 523.223 1250.4 521.657 1249.83ZM531.114 1253.12L531.43 1252.18C533.012 1252.7 534.599 1253.22 536.19 1253.72L535.888 1254.68C534.292 1254.17 532.701 1253.65 531.114 1253.12ZM540.675 1256.15L540.963 1255.2C542.555 1255.68 544.153 1256.14 545.754 1256.6L545.48 1257.56C543.874 1257.1 542.272 1256.63 540.675 1256.15ZM550.314 1258.9L550.574 1257.94C552.184 1258.37 553.797 1258.8 555.416 1259.21L555.169 1260.18C553.546 1259.76 551.928 1259.34 550.314 1258.9ZM560.026 1261.38L560.258 1260.4C561.877 1260.79 563.5 1261.17 565.127 1261.53L564.909 1262.51C563.277 1262.14 561.649 1261.76 560.026 1261.38ZM569.817 1263.57L570.022 1262.59C571.649 1262.93 573.28 1263.26 574.916 1263.58L574.725 1264.56C573.085 1264.24 571.449 1263.91 569.817 1263.57ZM579.647 1265.48L579.823 1264.49C581.463 1264.79 583.107 1265.07 584.755 1265.34L584.592 1266.33C582.94 1266.06 581.292 1265.77 579.647 1265.48ZM589.553 1267.11L589.701 1266.12C591.342 1266.36 592.987 1266.6 594.636 1266.82L594.502 1267.81C592.849 1267.59 591.199 1267.35 589.553 1267.11ZM599.474 1268.45L599.593 1267.46C601.249 1267.66 602.909 1267.85 604.572 1268.02L604.466 1269.02C602.798 1268.84 601.134 1268.65 599.474 1268.45ZM609.448 1269.51L609.54 1268.51C611.194 1268.67 612.851 1268.81 614.512 1268.94L614.434 1269.93C612.769 1269.8 611.107 1269.66 609.448 1269.51ZM619.44 1270.29L619.503 1269.29C621.169 1269.39 622.837 1269.49 624.508 1269.57L624.459 1270.57C622.783 1270.49 621.11 1270.39 619.44 1270.29ZM629.449 1270.78L629.484 1269.78C631.146 1269.84 632.811 1269.89 634.478 1269.92L634.457 1270.92C632.785 1270.89 631.116 1270.84 629.449 1270.78ZM639.482 1270.99L639.489 1269.99C640.325 1270 641.162 1270 642 1270C642.838 1270 643.675 1270 644.512 1269.99L644.519 1270.99C643.68 1271 642.84 1271 642 1271C641.16 1271 640.32 1271 639.482 1270.99ZM649.544 1270.92L649.523 1269.92C651.19 1269.89 652.855 1269.84 654.516 1269.78L654.551 1270.78C652.885 1270.84 651.216 1270.89 649.544 1270.92ZM659.541 1270.57L659.492 1269.57C661.164 1269.49 662.832 1269.39 664.497 1269.29L664.561 1270.29C662.891 1270.39 661.217 1270.49 659.541 1270.57ZM669.566 1269.93L669.489 1268.94C671.15 1268.81 672.807 1268.67 674.461 1268.51L674.553 1269.51C672.894 1269.66 671.232 1269.8 669.566 1269.93ZM679.534 1269.02L679.429 1268.02C681.092 1267.85 682.751 1267.66 684.407 1267.46L684.527 1268.45C682.866 1268.65 681.202 1268.84 679.534 1269.02ZM689.499 1267.81L689.365 1266.82C691.013 1266.6 692.658 1266.36 694.3 1266.12L694.448 1267.11C692.802 1267.35 691.152 1267.59 689.499 1267.81ZM699.408 1266.33L699.246 1265.34C700.894 1265.07 702.537 1264.79 704.177 1264.49L704.354 1265.48C702.709 1265.77 701.061 1266.06 699.408 1266.33ZM709.275 1264.56L709.085 1263.58C710.72 1263.26 712.351 1262.93 713.979 1262.59L714.183 1263.57C712.551 1263.91 710.915 1264.24 709.275 1264.56ZM719.092 1262.51L718.873 1261.53C720.5 1261.17 722.123 1260.79 723.742 1260.4L723.975 1261.38C722.351 1261.76 720.724 1262.14 719.092 1262.51ZM728.831 1260.18L728.585 1259.21C730.203 1258.8 731.817 1258.37 733.426 1257.94L733.687 1258.9C732.073 1259.34 730.454 1259.76 728.831 1260.18ZM738.52 1257.56L738.246 1256.6C739.848 1256.14 741.445 1255.68 743.038 1255.2L743.326 1256.15C741.729 1256.63 740.127 1257.1 738.52 1257.56ZM748.112 1254.67L747.81 1253.72C749.402 1253.22 750.989 1252.7 752.571 1252.18L752.886 1253.12C751.3 1253.65 749.708 1254.17 748.112 1254.67ZM757.63 1251.51L757.301 1250.56C758.872 1250.02 760.439 1249.46 762 1248.89L762.343 1249.83C760.777 1250.4 759.206 1250.96 757.63 1251.51ZM767.046 1248.07L766.69 1247.14C768.248 1246.54 769.801 1245.94 771.349 1245.32L771.719 1246.25C770.167 1246.87 768.609 1247.48 767.046 1248.07ZM776.359 1244.37L775.975 1243.44C777.515 1242.8 779.05 1242.15 780.578 1241.49L780.975 1242.41C779.442 1243.07 777.903 1243.73 776.359 1244.37ZM785.566 1240.39L785.157 1239.48C786.677 1238.8 788.192 1238.1 789.701 1237.4L790.123 1238.31C788.61 1239.01 787.091 1239.71 785.566 1240.39ZM794.647 1236.16L794.211 1235.26C795.714 1234.53 797.21 1233.79 798.7 1233.05L799.148 1233.94C797.654 1234.69 796.153 1235.43 794.647 1236.16ZM803.613 1231.66L803.152 1230.77C804.63 1230.01 806.102 1229.23 807.567 1228.44L808.041 1229.32C806.571 1230.11 805.095 1230.89 803.613 1231.66ZM812.44 1226.91L811.954 1226.04C813.411 1225.23 814.862 1224.41 816.306 1223.58L816.804 1224.44C815.356 1225.28 813.901 1226.1 812.44 1226.91ZM821.13 1221.91L820.619 1221.05C822.051 1220.2 823.476 1219.34 824.895 1218.47L825.418 1219.32C823.995 1220.2 822.566 1221.06 821.13 1221.91ZM829.674 1216.67L829.138 1215.82C830.546 1214.93 831.946 1214.03 833.34 1213.12L833.888 1213.95C832.49 1214.87 831.085 1215.77 829.674 1216.67ZM838.06 1211.18L837.501 1210.35C838.883 1209.42 840.259 1208.48 841.627 1207.53L842.198 1208.35C840.826 1209.3 839.447 1210.25 838.06 1211.18ZM846.293 1205.45L845.71 1204.64C847.064 1203.67 848.411 1202.69 849.75 1201.7L850.345 1202.51C849.001 1203.5 847.651 1204.48 846.293 1205.45ZM854.355 1199.5L853.75 1198.7C855.076 1197.69 856.395 1196.67 857.707 1195.65L858.324 1196.43C857.008 1197.46 855.686 1198.49 854.355 1199.5ZM862.247 1193.31L861.619 1192.54C862.915 1191.49 864.205 1190.43 865.486 1189.37L866.125 1190.14C864.84 1191.21 863.547 1192.27 862.247 1193.31ZM869.959 1186.91L869.309 1186.15C870.576 1185.07 871.834 1183.97 873.085 1182.87L873.746 1183.62C872.491 1184.73 871.229 1185.82 869.959 1186.91ZM877.485 1180.29L876.814 1179.55C878.049 1178.43 879.277 1177.3 880.496 1176.17L881.178 1176.9C879.955 1178.04 878.724 1179.17 877.485 1180.29ZM884.822 1173.45L884.13 1172.73C885.333 1171.58 886.527 1170.42 887.714 1169.25L888.416 1169.96C887.226 1171.13 886.028 1172.3 884.822 1173.45ZM891.96 1166.42L891.248 1165.71C892.418 1164.53 893.579 1163.33 894.732 1162.13L895.454 1162.82C894.298 1164.03 893.133 1165.23 891.96 1166.42ZM898.897 1159.18L898.165 1158.5C899.301 1157.28 900.428 1156.05 901.546 1154.81L902.288 1155.49C901.166 1156.72 900.036 1157.95 898.897 1159.18ZM905.625 1151.75L904.874 1151.09C905.974 1149.83 907.066 1148.58 908.149 1147.31L908.909 1147.96C907.823 1149.23 906.728 1150.49 905.625 1151.75ZM912.14 1144.12L911.371 1143.49C912.435 1142.2 913.49 1140.92 914.536 1139.62L915.315 1140.25C914.265 1141.55 913.207 1142.84 912.14 1144.12ZM918.434 1136.32C919.465 1135.01 920.486 1133.69 921.499 1132.36L920.703 1131.75C919.693 1133.08 918.675 1134.4 917.647 1135.71L918.434 1136.32ZM924.506 1128.34L923.701 1127.75C924.691 1126.41 925.671 1125.06 926.642 1123.71L927.455 1124.29C926.481 1125.65 925.498 1127 924.506 1128.34ZM930.347 1120.2C931.301 1118.83 932.246 1117.45 933.181 1116.06L932.352 1115.5C931.42 1116.88 930.477 1118.26 929.526 1119.63L930.347 1120.2ZM935.953 1111.89L935.116 1111.34C936.028 1109.95 936.93 1108.55 937.822 1107.14L938.667 1107.67C937.772 1109.08 936.867 1110.49 935.953 1111.89ZM941.322 1103.42L940.47 1102.89C941.341 1101.48 942.203 1100.05 943.054 1098.62L943.914 1099.13C943.06 1100.57 942.196 1102 941.322 1103.42ZM946.444 1094.8L945.577 1094.31C946.408 1092.86 947.229 1091.41 948.04 1089.95L948.914 1090.44C948.101 1091.9 947.277 1093.36 946.444 1094.8ZM951.321 1086.04L950.44 1085.57C951.229 1084.1 952.007 1082.63 952.775 1081.15L953.662 1081.61C952.892 1083.1 952.111 1084.57 951.321 1086.04ZM955.942 1077.15L955.048 1076.7C955.795 1075.21 956.532 1073.71 957.259 1072.21L958.159 1072.65C957.43 1074.15 956.691 1075.65 955.942 1077.15ZM960.307 1068.12C961.013 1066.61 961.707 1065.09 962.392 1063.57L961.479 1063.16C960.797 1064.68 960.104 1066.19 959.401 1067.7L960.307 1068.12ZM964.413 1058.97L963.495 1058.58C964.155 1057.05 964.804 1055.52 965.442 1053.98L966.366 1054.36C965.726 1055.9 965.075 1057.44 964.413 1058.97ZM968.251 1049.72L967.322 1049.35C967.938 1047.8 968.543 1046.25 969.137 1044.69L970.072 1045.05C969.476 1046.61 968.869 1048.17 968.251 1049.72ZM971.827 1040.34L970.887 1040C971.457 1038.44 972.016 1036.87 972.564 1035.3L973.509 1035.63C972.959 1037.21 972.398 1038.78 971.827 1040.34ZM975.125 1030.89L974.176 1030.57C974.702 1028.99 975.218 1027.4 975.722 1025.81L976.675 1026.11C976.169 1027.71 975.653 1029.3 975.125 1030.89ZM978.154 1021.33L977.196 1021.04C977.675 1019.44 978.144 1017.85 978.601 1016.25L979.562 1016.52C979.104 1018.13 978.634 1019.73 978.154 1021.33ZM980.904 1011.69L979.939 1011.43C980.373 1009.82 980.796 1008.2 981.208 1006.58L982.177 1006.83C981.764 1008.45 981.34 1010.07 980.904 1011.69ZM983.376 1001.97L982.404 1001.74C982.791 1000.12 983.167 998.5 983.531 996.873L984.507 997.091C984.142 998.723 983.764 1000.35 983.376 1001.97ZM985.57 992.183L984.591 991.978C984.932 990.351 985.26 988.72 985.578 987.084L986.56 987.275C986.241 988.915 985.911 990.551 985.57 992.183ZM987.478 982.353L986.494 982.177C986.788 980.537 987.071 978.893 987.342 977.245L988.328 977.408C988.057 979.06 987.773 980.708 987.478 982.353ZM989.108 972.447L988.119 972.299C988.365 970.658 988.599 969.013 988.823 967.364L989.813 967.498C989.59 969.151 989.355 970.801 989.108 972.447ZM990.45 962.526L989.457 962.407C989.657 960.751 989.846 959.091 990.022 957.428L991.017 957.534C990.839 959.202 990.65 960.866 990.45 962.526ZM991.511 952.552L990.515 952.46C990.667 950.806 990.807 949.149 990.936 947.488L991.933 947.566C991.804 949.231 991.663 950.893 991.511 952.552ZM992.287 942.56L991.289 942.497C991.394 940.831 991.488 939.163 991.571 937.492L992.569 937.541C992.487 939.217 992.393 940.89 992.287 942.56ZM992.78 932.551L991.78 932.516C991.839 930.854 991.886 929.189 991.921 927.522L992.921 927.543C992.885 929.215 992.838 930.884 992.78 932.551Z" fill="black" fill-opacity="0.2"/>
<path fill-rule="evenodd" clip-rule="evenodd" d="M923.989 922.529L922.989 922.521C922.996 921.681 923 920.841 923 920C923 919.159 922.996 918.319 922.989 917.48L923.989 917.471C923.996 918.313 924 919.156 924 920C924 920.844 923.996 921.687 923.989 922.529ZM923.9 912.429L922.901 912.455C922.857 910.784 922.798 909.116 922.725 907.453L923.724 907.409C923.797 909.078 923.856 910.752 923.9 912.429ZM923.458 902.378L922.46 902.44C922.357 900.766 922.239 899.096 922.107 897.43L923.104 897.351C923.237 899.023 923.355 900.698 923.458 902.378ZM922.662 892.348L921.666 892.445C921.504 890.776 921.327 889.111 921.135 887.45L922.128 887.335C922.321 889.002 922.498 890.673 922.662 892.348ZM921.507 882.337C921.285 880.676 921.049 879.019 920.798 877.366L919.81 877.516C920.059 879.163 920.295 880.814 920.516 882.469L921.507 882.337ZM919.997 872.385L919.011 872.553C918.731 870.902 918.435 869.256 918.126 867.616L919.109 867.43C919.419 869.077 919.715 870.728 919.997 872.385ZM918.134 862.501L917.154 862.704C916.814 861.061 916.459 859.424 916.091 857.792L917.066 857.571C917.436 859.209 917.792 860.853 918.134 862.501ZM915.913 852.674L914.942 852.912C914.544 851.287 914.132 849.668 913.705 848.054L914.672 847.799C915.1 849.418 915.514 851.044 915.913 852.674ZM913.342 842.938L912.379 843.211C911.923 841.602 911.453 839.999 910.97 838.402L911.927 838.112C912.412 839.715 912.884 841.323 913.342 842.938ZM910.423 833.306C909.907 831.707 909.377 830.114 908.833 828.527L907.887 828.851C908.429 830.432 908.957 832.02 909.472 833.613L910.423 833.306ZM907.161 823.786L906.221 824.127C905.649 822.552 905.064 820.984 904.465 819.423L905.399 819.065C906 820.632 906.587 822.206 907.161 823.786ZM903.554 814.381L902.627 814.755C902.001 813.206 901.361 811.663 900.708 810.127L901.628 809.735C902.284 811.277 902.926 812.825 903.554 814.381ZM899.614 805.116L898.701 805.523C898.019 803.996 897.324 802.476 896.615 800.963L897.521 800.539C898.232 802.057 898.93 803.583 899.614 805.116ZM895.346 796.001L894.448 796.441C893.711 794.938 892.961 793.443 892.198 791.955L893.088 791.499C893.853 792.992 894.606 794.493 895.346 796.001ZM890.752 787.042L889.87 787.515C889.08 786.039 888.277 784.572 887.462 783.113L888.335 782.625C889.153 784.09 889.959 785.562 890.752 787.042ZM885.839 778.252L884.975 778.755C884.134 777.311 883.28 775.875 882.413 774.447L883.268 773.928C884.138 775.361 884.995 776.802 885.839 778.252ZM880.617 769.645L879.771 770.179C878.878 768.765 877.973 767.359 877.056 765.962L877.892 765.413C878.812 766.815 879.721 768.226 880.617 769.645ZM875.092 761.231L874.266 761.795C873.323 760.413 872.367 759.039 871.4 757.675L872.216 757.097C873.187 758.466 874.145 759.844 875.092 761.231ZM869.269 753.017L868.464 753.61C867.472 752.263 866.469 750.925 865.454 749.596L866.249 748.989C867.267 750.322 868.274 751.665 869.269 753.017ZM863.158 745.015L862.374 745.636C861.335 744.326 860.286 743.025 859.225 741.733L859.997 741.098C861.062 742.394 862.116 743.7 863.158 745.015ZM856.766 737.237L856.005 737.885C854.921 736.612 853.825 735.349 852.719 734.095L853.468 733.433C854.579 734.691 855.678 735.959 856.766 737.237ZM850.103 729.69L849.366 730.365C848.237 729.131 847.097 727.907 845.946 726.694L846.672 726.006C847.826 727.223 848.97 728.452 850.103 729.69ZM843.176 722.384L842.463 723.084C841.291 721.892 840.108 720.709 838.916 719.537L839.616 718.824C840.813 720 842 721.186 843.176 722.384ZM835.994 715.328L835.306 716.054C834.093 714.903 832.869 713.763 831.635 712.634L832.31 711.897C833.548 713.03 834.776 714.173 835.994 715.328ZM828.567 708.532L827.905 709.281C826.651 708.175 825.388 707.079 824.115 705.995L824.763 705.233C826.041 706.322 827.309 707.421 828.567 708.532ZM820.902 702.003L820.267 702.775C818.975 701.714 817.674 700.664 816.364 699.626L816.985 698.842C818.3 699.884 819.606 700.938 820.902 702.003ZM813.011 695.751L812.404 696.546C811.075 695.531 809.737 694.528 808.39 693.536L808.983 692.731C810.335 693.726 811.678 694.733 813.011 695.751ZM804.903 689.784L804.325 690.6C802.961 689.633 801.587 688.677 800.205 687.734L800.769 686.908C802.156 687.855 803.534 688.813 804.903 689.784ZM796.587 684.108L796.038 684.944C794.641 684.027 793.235 683.122 791.821 682.229L792.355 681.383C793.774 682.279 795.185 683.188 796.587 684.108ZM788.072 678.732L787.553 679.587C786.125 678.72 784.689 677.866 783.245 677.025L783.748 676.161C785.198 677.005 786.639 677.862 788.072 678.732ZM779.375 673.665C777.91 672.847 776.438 672.041 774.958 671.248L774.485 672.13C775.961 672.92 777.428 673.723 778.887 674.538L779.375 673.665ZM770.501 668.912L770.045 669.802C768.557 669.039 767.062 668.289 765.559 667.552L765.999 666.654C767.507 667.394 769.008 668.147 770.501 668.912ZM761.461 664.479L761.037 665.385C759.524 664.676 758.004 663.981 756.477 663.299L756.884 662.386C758.417 663.07 759.943 663.768 761.461 664.479ZM752.265 660.372L751.873 661.292C750.337 660.639 748.795 659.999 747.245 659.373L747.62 658.446C749.175 659.074 750.723 659.717 752.265 660.372ZM742.935 656.601L742.577 657.535C741.016 656.936 739.448 656.351 737.873 655.779L738.214 654.839C739.795 655.413 741.368 656 742.935 656.601ZM733.473 653.167L733.149 654.113C731.568 653.571 729.98 653.043 728.387 652.528L728.694 651.577C730.293 652.093 731.886 652.623 733.473 653.167ZM723.888 650.073L723.598 651.03C722.001 650.547 720.398 650.077 718.79 649.621L719.062 648.659C720.677 649.116 722.286 649.588 723.888 650.073ZM714.201 647.328L713.946 648.295C712.332 647.869 710.713 647.456 709.088 647.058L709.326 646.087C710.957 646.487 712.582 646.9 714.201 647.328ZM704.429 644.934L704.208 645.909C702.576 645.541 700.939 645.186 699.296 644.846L699.499 643.866C701.148 644.208 702.791 644.564 704.429 644.934ZM694.57 642.891L694.385 643.874C692.744 643.565 691.098 643.27 689.448 642.989L689.615 642.003C691.272 642.285 692.924 642.581 694.57 642.891ZM684.634 641.202L684.484 642.19C682.838 641.941 681.187 641.705 679.531 641.484L679.663 640.493C681.325 640.715 682.982 640.951 684.634 641.202ZM674.665 639.872L674.551 640.865C672.89 640.673 671.225 640.496 669.555 640.334L669.652 639.339C671.327 639.502 672.999 639.679 674.665 639.872ZM664.649 638.896L664.57 639.893C662.904 639.761 661.235 639.643 659.561 639.54L659.622 638.542C661.302 638.645 662.978 638.763 664.649 638.896ZM654.592 638.276L654.548 639.275C652.884 639.202 651.216 639.143 649.545 639.099L649.572 638.1C651.249 638.144 652.922 638.203 654.592 638.276ZM644.53 638.011L644.521 639.011C643.681 639.004 642.841 639 642 639C641.159 639 640.319 639.004 639.48 639.011L639.471 638.011C640.313 638.004 641.156 638 642 638C642.844 638 643.687 638.004 644.53 638.011ZM634.429 638.1L634.455 639.099C632.784 639.143 631.116 639.202 629.453 639.275L629.409 638.276C631.078 638.203 632.752 638.144 634.429 638.1ZM624.378 638.542L624.44 639.54C622.766 639.643 621.096 639.761 619.43 639.893L619.351 638.896C621.023 638.763 622.698 638.645 624.378 638.542ZM614.348 639.338L614.445 640.334C612.776 640.496 611.111 640.673 609.45 640.865L609.335 639.871C611.002 639.679 612.673 639.502 614.348 639.338ZM604.337 640.493L604.469 641.484C602.814 641.705 601.163 641.941 599.516 642.19L599.366 641.202C601.019 640.951 602.676 640.715 604.337 640.493ZM594.385 642.003L594.553 642.989C592.902 643.269 591.256 643.565 589.616 643.874L589.43 642.891C591.077 642.581 592.728 642.285 594.385 642.003ZM584.501 643.866L584.704 644.846C583.061 645.186 581.424 645.541 579.792 645.909L579.571 644.934C581.209 644.564 582.853 644.208 584.501 643.866ZM574.674 646.087L574.912 647.058C573.287 647.456 571.668 647.868 570.054 648.295L569.799 647.328C571.418 646.9 573.044 646.486 574.674 646.087ZM564.938 648.658C563.323 649.116 561.715 649.588 560.112 650.073L560.402 651.03C561.999 650.547 563.602 650.077 565.211 649.621L564.938 648.658ZM555.306 651.577C553.707 652.093 552.114 652.623 550.527 653.167L550.851 654.113C552.432 653.571 554.02 653.043 555.613 652.528L555.306 651.577ZM545.786 654.839L546.127 655.779C544.552 656.351 542.984 656.936 541.423 657.535L541.065 656.601C542.632 656 544.206 655.413 545.786 654.839ZM536.381 658.446L536.755 659.373C535.206 659.999 533.663 660.639 532.127 661.292L531.735 660.372C533.277 659.716 534.825 659.074 536.381 658.446ZM527.116 662.386L527.523 663.299C525.996 663.981 524.476 664.676 522.963 665.385L522.539 664.479C524.057 663.768 525.583 663.07 527.116 662.386ZM518.001 666.654L518.441 667.552C516.938 668.289 515.443 669.039 513.955 669.802L513.499 668.912C514.992 668.147 516.493 667.394 518.001 666.654ZM509.042 671.248L509.515 672.13C508.039 672.92 506.572 673.723 505.113 674.538L504.625 673.665C506.09 672.847 507.562 672.041 509.042 671.248ZM500.252 676.161L500.755 677.025C499.311 677.866 497.875 678.72 496.447 679.587L495.928 678.732C497.361 677.862 498.802 677.005 500.252 676.161ZM491.645 681.383L492.179 682.229C490.765 683.122 489.359 684.027 487.962 684.944L487.413 684.108C488.815 683.188 490.226 682.279 491.645 681.383ZM483.231 686.908L483.795 687.734C482.413 688.677 481.039 689.633 479.675 690.6L479.097 689.784C480.466 688.813 481.844 687.855 483.231 686.908ZM475.017 692.731C473.665 693.726 472.322 694.733 470.989 695.751L471.596 696.546C472.925 695.531 474.263 694.528 475.61 693.536L475.017 692.731ZM467.015 698.842L467.636 699.626C466.326 700.665 465.025 701.714 463.733 702.775L463.098 702.003C464.394 700.938 465.7 699.884 467.015 698.842ZM459.237 705.234L459.885 705.995C458.612 707.079 457.349 708.175 456.095 709.281L455.433 708.532C456.691 707.421 457.959 706.322 459.237 705.234ZM451.69 711.897L452.365 712.634C451.131 713.763 449.907 714.903 448.694 716.054L448.006 715.328C449.223 714.173 450.452 713.03 451.69 711.897ZM444.383 718.824L445.084 719.537C443.892 720.709 442.709 721.892 441.537 723.084L440.824 722.384C442 721.187 443.186 720 444.383 718.824ZM437.328 726.006L438.054 726.694C436.903 727.907 435.763 729.131 434.634 730.365L433.897 729.69C435.03 728.452 436.173 727.224 437.328 726.006ZM430.532 733.433L431.281 734.095C430.175 735.349 429.079 736.612 427.995 737.885L427.233 737.237C428.322 735.959 429.421 734.691 430.532 733.433ZM424.003 741.098L424.775 741.733C423.714 743.025 422.664 744.326 421.626 745.636L420.842 745.015C421.884 743.7 422.938 742.394 424.003 741.098ZM417.751 748.989L418.546 749.596C417.531 750.925 416.528 752.263 415.536 753.61L414.731 753.017C415.726 751.665 416.733 750.322 417.751 748.989ZM411.784 757.097L412.6 757.675C411.633 759.039 410.677 760.413 409.734 761.795L408.908 761.231C409.855 759.844 410.813 758.466 411.784 757.097ZM406.108 765.413L406.944 765.962C406.027 767.359 405.122 768.765 404.229 770.179L403.383 769.645C404.279 768.226 405.188 766.815 406.108 765.413ZM400.732 773.928L401.587 774.447C400.72 775.875 399.866 777.311 399.025 778.755L398.161 778.252C399.005 776.802 399.862 775.361 400.732 773.928ZM395.665 782.625C394.847 784.09 394.041 785.562 393.248 787.042L394.13 787.515C394.92 786.039 395.723 784.572 396.538 783.113L395.665 782.625ZM390.912 791.499L391.802 791.955C391.039 793.443 390.289 794.938 389.552 796.441L388.654 796.001C389.394 794.493 390.147 792.992 390.912 791.499ZM386.479 800.539L387.385 800.963C386.676 802.476 385.981 803.996 385.299 805.523L384.386 805.116C385.07 803.583 385.768 802.057 386.479 800.539ZM382.372 809.735L383.292 810.127C382.639 811.663 381.999 813.205 381.373 814.755L380.446 814.38C381.074 812.825 381.717 811.277 382.372 809.735ZM378.601 819.065L379.535 819.423C378.936 820.984 378.351 822.552 377.779 824.127L376.839 823.786C377.413 822.205 378 820.632 378.601 819.065ZM375.167 828.527L376.113 828.851C375.571 830.432 375.043 832.02 374.528 833.613L373.577 833.306C374.093 831.707 374.623 830.114 375.167 828.527ZM372.073 838.112L373.03 838.402C372.547 839.999 372.077 841.602 371.621 843.21L370.659 842.938C371.116 841.323 371.588 839.714 372.073 838.112ZM369.328 847.799C368.9 849.418 368.487 851.043 368.087 852.674L369.058 852.912C369.456 851.287 369.869 849.668 370.295 848.054L369.328 847.799ZM366.934 857.571L367.909 857.792C367.541 859.424 367.186 861.061 366.846 862.704L365.866 862.501C366.208 860.852 366.564 859.209 366.934 857.571ZM364.891 867.43L365.874 867.615C365.565 869.256 365.27 870.902 364.989 872.552L364.003 872.385C364.285 870.728 364.581 869.077 364.891 867.43ZM363.202 877.366L364.19 877.516C363.941 879.162 363.705 880.813 363.484 882.469L362.493 882.337C362.715 880.675 362.951 879.018 363.202 877.366ZM361.872 887.335L362.865 887.449C362.673 889.11 362.496 890.775 362.334 892.445L361.339 892.348C361.502 890.673 361.679 889.001 361.872 887.335ZM360.896 897.351L361.893 897.43C361.761 899.096 361.643 900.765 361.54 902.439L360.542 902.378C360.645 900.698 360.763 899.022 360.896 897.351ZM360.276 907.408L361.275 907.452C361.202 909.116 361.143 910.784 361.099 912.455L360.1 912.428C360.144 910.751 360.203 909.078 360.276 907.408ZM360.011 917.47C360.004 918.313 360 919.156 360 920C360 920.844 360.004 921.687 360.011 922.529L361.011 922.52C361.004 921.681 361 920.841 361 920C361 919.159 361.004 918.319 361.011 917.479L360.011 917.47ZM360.1 927.571L361.099 927.545C361.143 929.216 361.202 930.884 361.275 932.547L360.276 932.591C360.203 930.922 360.144 929.248 360.1 927.571ZM360.542 937.622L361.54 937.56C361.643 939.234 361.761 940.904 361.893 942.57L360.896 942.649C360.763 940.977 360.645 939.302 360.542 937.622ZM361.338 947.652L362.334 947.555C362.496 949.224 362.673 950.889 362.865 952.55L361.871 952.665C361.679 950.998 361.502 949.327 361.338 947.652ZM362.493 957.663L363.484 957.531C363.705 959.186 363.941 960.837 364.19 962.484L363.202 962.634C362.951 960.981 362.715 959.324 362.493 957.663ZM364.003 967.615L364.989 967.447C365.269 969.098 365.565 970.744 365.874 972.384L364.891 972.57C364.581 970.923 364.285 969.272 364.003 967.615ZM365.866 977.499L366.846 977.296C367.186 978.939 367.541 980.576 367.909 982.208L366.934 982.429C366.564 980.791 366.208 979.147 365.866 977.499ZM368.087 987.326C368.486 988.956 368.9 990.582 369.328 992.201L370.295 991.946C369.868 990.332 369.456 988.713 369.058 987.088L368.087 987.326ZM370.658 997.062C371.116 998.677 371.588 1000.29 372.073 1001.89L373.03 1001.6C372.547 1000 372.077 998.398 371.621 996.789L370.658 997.062ZM373.577 1006.69L374.528 1006.39C375.043 1007.98 375.571 1009.57 376.113 1011.15L375.167 1011.47C374.623 1009.89 374.093 1008.29 373.577 1006.69ZM376.839 1016.21L377.779 1015.87C378.351 1017.45 378.936 1019.02 379.535 1020.58L378.601 1020.94C378 1019.37 377.413 1017.79 376.839 1016.21ZM380.446 1025.62L381.373 1025.24C381.999 1026.79 382.639 1028.34 383.292 1029.87L382.372 1030.26C381.716 1028.72 381.074 1027.17 380.446 1025.62ZM384.386 1034.88L385.299 1034.48C385.981 1036 386.676 1037.52 387.385 1039.04L386.479 1039.46C385.768 1037.94 385.07 1036.42 384.386 1034.88ZM388.654 1044L389.552 1043.56C390.289 1045.06 391.039 1046.56 391.802 1048.05L390.912 1048.5C390.147 1047.01 389.394 1045.51 388.654 1044ZM393.248 1052.96L394.13 1052.49C394.92 1053.96 395.723 1055.43 396.538 1056.89L395.665 1057.37C394.847 1055.91 394.041 1054.44 393.248 1052.96ZM398.161 1061.75L399.025 1061.24C399.866 1062.69 400.72 1064.13 401.587 1065.55L400.732 1066.07C399.862 1064.64 399.005 1063.2 398.161 1061.75ZM403.383 1070.35L404.229 1069.82C405.122 1071.24 406.027 1072.64 406.944 1074.04L406.108 1074.59C405.188 1073.19 404.279 1071.77 403.383 1070.35ZM408.908 1078.77L409.734 1078.21C410.677 1079.59 411.633 1080.96 412.6 1082.32L411.784 1082.9C410.813 1081.53 409.855 1080.16 408.908 1078.77ZM414.731 1086.98L415.536 1086.39C416.528 1087.74 417.531 1089.08 418.546 1090.4L417.751 1091.01C416.733 1089.68 415.726 1088.33 414.731 1086.98ZM420.842 1094.98L421.626 1094.36C422.665 1095.67 423.714 1096.98 424.775 1098.27L424.003 1098.9C422.938 1097.61 421.884 1096.3 420.842 1094.98ZM427.234 1102.76L427.995 1102.12C429.079 1103.39 430.175 1104.65 431.281 1105.9L430.532 1106.57C429.421 1105.31 428.322 1104.04 427.234 1102.76ZM433.897 1110.31L434.634 1109.64C435.763 1110.87 436.903 1112.09 438.054 1113.31L437.328 1113.99C436.174 1112.78 435.03 1111.55 433.897 1110.31ZM440.824 1117.62L441.537 1116.92C442.709 1118.11 443.892 1119.29 445.084 1120.46L444.384 1121.18C443.187 1120 442 1118.81 440.824 1117.62ZM448.006 1124.67L448.694 1123.95C449.907 1125.1 451.131 1126.24 452.365 1127.37L451.69 1128.1C450.452 1126.97 449.224 1125.83 448.006 1124.67ZM455.433 1131.47L456.095 1130.72C457.349 1131.83 458.612 1132.92 459.885 1134.01L459.237 1134.77C457.959 1133.68 456.691 1132.58 455.433 1131.47ZM463.098 1138L463.733 1137.22C465.025 1138.29 466.326 1139.34 467.636 1140.37L467.015 1141.16C465.7 1140.12 464.394 1139.06 463.098 1138ZM470.989 1144.25L471.596 1143.45C472.925 1144.47 474.263 1145.47 475.61 1146.46L475.017 1147.27C473.665 1146.27 472.322 1145.27 470.989 1144.25ZM479.097 1150.22L479.675 1149.4C481.039 1150.37 482.413 1151.32 483.795 1152.27L483.231 1153.09C481.844 1152.15 480.466 1151.19 479.097 1150.22ZM487.413 1155.89L487.962 1155.06C489.359 1155.97 490.765 1156.88 492.179 1157.77L491.645 1158.62C490.226 1157.72 488.815 1156.81 487.413 1155.89ZM495.928 1161.27L496.447 1160.41C497.875 1161.28 499.311 1162.13 500.755 1162.98L500.252 1163.84C498.802 1162.99 497.361 1162.14 495.928 1161.27ZM504.625 1166.33C506.09 1167.15 507.562 1167.96 509.042 1168.75L509.515 1167.87C508.039 1167.08 506.572 1166.28 505.113 1165.46L504.625 1166.33ZM513.499 1171.09L513.955 1170.2C515.443 1170.96 516.938 1171.71 518.441 1172.45L518.001 1173.35C516.493 1172.61 514.992 1171.85 513.499 1171.09ZM522.539 1175.52L522.963 1174.62C524.476 1175.32 525.996 1176.02 527.523 1176.7L527.116 1177.61C525.583 1176.93 524.057 1176.23 522.539 1175.52ZM531.735 1179.63L532.127 1178.71C533.663 1179.36 535.205 1180 536.755 1180.63L536.38 1181.55C534.825 1180.93 533.277 1180.28 531.735 1179.63ZM541.065 1183.4L541.423 1182.47C542.984 1183.06 544.552 1183.65 546.127 1184.22L545.786 1185.16C544.205 1184.59 542.632 1184 541.065 1183.4ZM550.527 1186.83L550.851 1185.89C552.432 1186.43 554.02 1186.96 555.613 1187.47L555.306 1188.42C553.707 1187.91 552.114 1187.38 550.527 1186.83ZM560.112 1189.93L560.402 1188.97C561.999 1189.45 563.602 1189.92 565.21 1190.38L564.938 1191.34C563.323 1190.88 561.714 1190.41 560.112 1189.93ZM569.799 1192.67L570.054 1191.71C571.668 1192.13 573.287 1192.54 574.912 1192.94L574.674 1193.91C573.043 1193.51 571.418 1193.1 569.799 1192.67ZM579.571 1195.07L579.792 1194.09C581.424 1194.46 583.061 1194.81 584.704 1195.15L584.501 1196.13C582.852 1195.79 581.209 1195.44 579.571 1195.07ZM589.43 1197.11L589.615 1196.13C591.256 1196.44 592.902 1196.73 594.552 1197.01L594.385 1198C592.728 1197.72 591.077 1197.42 589.43 1197.11ZM599.366 1198.8L599.516 1197.81C601.162 1198.06 602.813 1198.29 604.469 1198.52L604.337 1199.51C602.675 1199.28 601.018 1199.05 599.366 1198.8ZM609.335 1200.13L609.449 1199.14C611.11 1199.33 612.775 1199.5 614.445 1199.67L614.348 1200.66C612.673 1200.5 611.001 1200.32 609.335 1200.13ZM619.351 1201.1L619.43 1200.11C621.096 1200.24 622.765 1200.36 624.439 1200.46L624.378 1201.46C622.698 1201.35 621.022 1201.24 619.351 1201.1ZM629.408 1201.72L629.452 1200.72C631.116 1200.8 632.784 1200.86 634.455 1200.9L634.428 1201.9C632.751 1201.86 631.078 1201.8 629.408 1201.72ZM639.471 1201.99L639.479 1200.99C640.319 1201 641.159 1201 642 1201C642.841 1201 643.681 1201 644.52 1200.99L644.529 1201.99C643.687 1202 642.844 1202 642 1202C641.156 1202 640.313 1202 639.471 1201.99ZM649.571 1201.9L649.545 1200.9C651.216 1200.86 652.884 1200.8 654.547 1200.72L654.591 1201.72C652.922 1201.8 651.248 1201.86 649.571 1201.9ZM659.622 1201.46L659.56 1200.46C661.234 1200.36 662.904 1200.24 664.57 1200.11L664.649 1201.1C662.977 1201.24 661.302 1201.35 659.622 1201.46ZM669.652 1200.66L669.555 1199.67C671.224 1199.5 672.889 1199.33 674.55 1199.14L674.665 1200.13C672.998 1200.32 671.327 1200.5 669.652 1200.66ZM679.663 1199.51L679.531 1198.52C681.186 1198.29 682.837 1198.06 684.484 1197.81L684.634 1198.8C682.981 1199.05 681.324 1199.29 679.663 1199.51ZM689.615 1198L689.447 1197.01C691.098 1196.73 692.744 1196.44 694.384 1196.13L694.57 1197.11C692.923 1197.42 691.272 1197.72 689.615 1198ZM699.499 1196.13L699.296 1195.15C700.939 1194.81 702.576 1194.46 704.208 1194.09L704.429 1195.07C702.791 1195.44 701.147 1195.79 699.499 1196.13ZM709.326 1193.91L709.088 1192.94C710.713 1192.54 712.332 1192.13 713.946 1191.71L714.201 1192.67C712.582 1193.1 710.956 1193.51 709.326 1193.91ZM719.062 1191.34L718.789 1190.38C720.398 1189.92 722.001 1189.45 723.598 1188.97L723.888 1189.93C722.285 1190.41 720.677 1190.88 719.062 1191.34ZM728.694 1188.42C730.293 1187.91 731.886 1187.38 733.473 1186.83L733.149 1185.89C731.568 1186.43 729.98 1186.96 728.387 1187.47L728.694 1188.42ZM738.214 1185.16L737.873 1184.22C739.448 1183.65 741.016 1183.06 742.577 1182.47L742.935 1183.4C741.368 1184 739.794 1184.59 738.214 1185.16ZM747.619 1181.55C749.175 1180.93 750.723 1180.28 752.265 1179.63L751.873 1178.71C750.337 1179.36 748.794 1180 747.245 1180.63L747.619 1181.55ZM756.884 1177.61L756.477 1176.7C758.004 1176.02 759.524 1175.32 761.037 1174.62L761.461 1175.52C759.943 1176.23 758.417 1176.93 756.884 1177.61ZM765.999 1173.35L765.559 1172.45C767.062 1171.71 768.557 1170.96 770.045 1170.2L770.501 1171.09C769.008 1171.85 767.507 1172.61 765.999 1173.35ZM774.958 1168.75L774.485 1167.87C775.961 1167.08 777.428 1166.28 778.887 1165.46L779.375 1166.33C777.91 1167.15 776.438 1167.96 774.958 1168.75ZM783.748 1163.84L783.245 1162.98C784.689 1162.13 786.125 1161.28 787.553 1160.41L788.072 1161.27C786.639 1162.14 785.198 1162.99 783.748 1163.84ZM792.355 1158.62L791.821 1157.77C793.235 1156.88 794.641 1155.97 796.038 1155.06L796.587 1155.89C795.185 1156.81 793.774 1157.72 792.355 1158.62ZM800.769 1153.09L800.205 1152.27C801.587 1151.32 802.961 1150.37 804.325 1149.4L804.903 1150.22C803.534 1151.19 802.156 1152.15 800.769 1153.09ZM808.983 1147.27L808.39 1146.46C809.737 1145.47 811.075 1144.47 812.404 1143.45L813.011 1144.25C811.678 1145.27 810.335 1146.27 808.983 1147.27ZM816.985 1141.16L816.364 1140.37C817.674 1139.34 818.975 1138.29 820.267 1137.22L820.902 1138C819.606 1139.06 818.3 1140.12 816.985 1141.16ZM824.763 1134.77L824.115 1134.01C825.388 1132.92 826.651 1131.83 827.905 1130.72L828.567 1131.47C827.309 1132.58 826.041 1133.68 824.763 1134.77ZM832.31 1128.1L831.635 1127.37C832.869 1126.24 834.093 1125.1 835.306 1123.95L835.994 1124.67C834.776 1125.83 833.548 1126.97 832.31 1128.1ZM839.616 1121.18L838.916 1120.46C840.108 1119.29 841.291 1118.11 842.463 1116.92L843.176 1117.62C842 1118.81 840.814 1120 839.616 1121.18ZM846.672 1113.99L845.946 1113.31C847.097 1112.09 848.237 1110.87 849.366 1109.64L850.103 1110.31C848.97 1111.55 847.827 1112.78 846.672 1113.99ZM853.468 1106.57L852.719 1105.9C853.825 1104.65 854.921 1103.39 856.005 1102.11L856.767 1102.76C855.678 1104.04 854.579 1105.31 853.468 1106.57ZM859.997 1098.9L859.225 1098.27C860.286 1096.98 861.336 1095.67 862.374 1094.36L863.158 1094.98C862.116 1096.3 861.062 1097.61 859.997 1098.9ZM866.249 1091.01L865.454 1090.4C866.469 1089.08 867.472 1087.74 868.464 1086.39L869.269 1086.98C868.274 1088.33 867.267 1089.68 866.249 1091.01ZM872.216 1082.9L871.4 1082.32C872.367 1080.96 873.323 1079.59 874.266 1078.21L875.092 1078.77C874.145 1080.16 873.187 1081.53 872.216 1082.9ZM877.892 1074.59L877.056 1074.04C877.973 1072.64 878.878 1071.24 879.771 1069.82L880.617 1070.35C879.721 1071.77 878.812 1073.19 877.892 1074.59ZM883.268 1066.07L882.413 1065.55C883.28 1064.13 884.134 1062.69 884.975 1061.24L885.839 1061.75C884.995 1063.2 884.138 1064.64 883.268 1066.07ZM888.335 1057.37C889.153 1055.91 889.959 1054.44 890.752 1052.96L889.87 1052.49C889.08 1053.96 888.277 1055.43 887.462 1056.89L888.335 1057.37ZM893.088 1048.5L892.198 1048.05C892.961 1046.56 893.711 1045.06 894.448 1043.56L895.346 1044C894.606 1045.51 893.853 1047.01 893.088 1048.5ZM897.521 1039.46L896.615 1039.04C897.324 1037.52 898.019 1036 898.701 1034.48L899.614 1034.88C898.93 1036.42 898.232 1037.94 897.521 1039.46ZM901.628 1030.26L900.708 1029.87C901.361 1028.34 902.001 1026.79 902.627 1025.24L903.554 1025.62C902.926 1027.17 902.284 1028.72 901.628 1030.26ZM905.399 1020.94C906 1019.37 906.587 1017.79 907.161 1016.21L906.221 1015.87C905.649 1017.45 905.064 1019.02 904.465 1020.58L905.399 1020.94ZM908.833 1011.47L907.887 1011.15C908.429 1009.57 908.957 1007.98 909.472 1006.39L910.423 1006.69C909.907 1008.29 909.377 1009.89 908.833 1011.47ZM911.927 1001.89L910.97 1001.6C911.453 1000 911.923 998.398 912.379 996.79L913.341 997.062C912.884 998.677 912.412 1000.29 911.927 1001.89ZM914.672 992.201L913.705 991.946C914.131 990.332 914.544 988.713 914.942 987.088L915.913 987.326C915.514 988.957 915.1 990.582 914.672 992.201ZM917.066 982.429L916.091 982.208C916.459 980.576 916.814 978.939 917.154 977.296L918.134 977.499C917.792 979.148 917.436 980.791 917.066 982.429ZM919.109 972.57L918.126 972.385C918.435 970.744 918.73 969.098 919.011 967.448L919.997 967.615C919.715 969.272 919.419 970.923 919.109 972.57ZM920.798 962.634L919.81 962.484C920.059 960.838 920.295 959.187 920.516 957.531L921.507 957.663C921.285 959.325 921.049 960.982 920.798 962.634ZM922.128 952.665L921.135 952.551C921.327 950.89 921.504 949.225 921.666 947.555L922.661 947.652C922.498 949.327 922.321 950.999 922.128 952.665ZM923.104 942.649L922.107 942.57C922.239 940.904 922.357 939.235 922.46 937.561L923.458 937.622C923.355 939.302 923.237 940.978 923.104 942.649ZM923.724 932.592L922.725 932.548C922.798 930.884 922.857 929.216 922.901 927.545L923.9 927.572C923.856 929.249 923.797 930.922 923.724 932.592Z" fill="black" fill-opacity="0.2"/>
</g>
</svg>
