<svg width="146" height="24" viewBox="0 0 146 24" fill="none" xmlns="http://www.w3.org/2000/svg">
<path d="M0.193182 4.49503V1.18182H17.6009V4.49503H10.8572V23H6.93679V4.49503H0.193182ZM17.8067 23V1.18182H31.997V4.49503H21.7591V10.4183H31.2619V13.7315H21.7591V19.6868H32.0822V23H17.8067ZM51.5548 8.54332H47.5704C47.4567 7.88991 47.2472 7.31108 46.9418 6.80682C46.6364 6.29545 46.2565 5.86222 45.8019 5.5071C45.3474 5.15199 44.8289 4.88565 44.2465 4.7081C43.6712 4.52344 43.0498 4.43111 42.3822 4.43111C41.1961 4.43111 40.145 4.7294 39.2288 5.32599C38.3126 5.91548 37.5952 6.78196 37.0768 7.92543C36.5583 9.06179 36.2991 10.4503 36.2991 12.0909C36.2991 13.7599 36.5583 15.1662 37.0768 16.3097C37.6023 17.446 38.3197 18.3054 39.2288 18.8878C40.145 19.4631 41.1925 19.7507 42.3715 19.7507C43.0249 19.7507 43.6357 19.6655 44.2039 19.495C44.7792 19.3175 45.2941 19.0582 45.7487 18.7173C46.2103 18.3764 46.5974 17.9574 46.9099 17.4602C47.2295 16.9631 47.4496 16.3949 47.5704 15.7557L51.5548 15.777C51.4056 16.8139 51.0825 17.7869 50.5853 18.696C50.0952 19.6051 49.4525 20.4077 48.657 21.1037C47.8616 21.7926 46.9312 22.3324 45.8658 22.723C44.8005 23.1065 43.618 23.2983 42.3183 23.2983C40.4006 23.2983 38.689 22.8544 37.1833 21.9666C35.6776 21.0788 34.4915 19.7969 33.6251 18.1207C32.7586 16.4446 32.3254 14.4347 32.3254 12.0909C32.3254 9.74006 32.7621 7.73011 33.6357 6.06108C34.5093 4.38494 35.6989 3.10298 37.2046 2.2152C38.7103 1.32741 40.4148 0.883522 42.3183 0.883522C43.5327 0.883522 44.662 1.05398 45.706 1.39489C46.7501 1.7358 47.6805 2.23651 48.4972 2.89702C49.314 3.55043 49.9852 4.35298 50.5107 5.30469C51.0434 6.24929 51.3914 7.32884 51.5548 8.54332ZM52.0243 23V1.18182H55.9767V10.4183H66.0868V1.18182H70.0498V23H66.0868V13.7315H55.9767V23H52.0243ZM88.9364 1.18182V23H86.9975L74.1069 4.7294H73.9364V23H71.9442V1.18182H73.8725L86.8057 19.4737H86.9762V1.18182H88.9364ZM91.5872 23V1.18182H104.243V2.97159H93.5794V11.1854H103.572V12.9751H93.5794V21.2102H104.456V23H91.5872ZM110.042 23L104.066 1.18182H106.09L111.033 19.9425H111.204L116.147 1.18182H118.448L123.391 19.9425H123.561L128.505 1.18182H130.539L124.563 23H122.432L117.372 4.49503H117.233L112.173 23H110.042ZM142.837 6.63636C142.716 5.42187 142.18 4.45597 141.228 3.73864C140.277 3.02131 139.08 2.66264 137.638 2.66264C136.622 2.66264 135.728 2.83665 134.953 3.18466C134.186 3.53267 133.583 4.01562 133.142 4.63352C132.709 5.24432 132.492 5.94034 132.492 6.72159C132.492 7.29688 132.617 7.80114 132.865 8.23438C133.114 8.66761 133.448 9.04048 133.867 9.35298C134.293 9.65838 134.762 9.92116 135.273 10.1413C135.791 10.3615 136.313 10.5462 136.839 10.6953L139.14 11.3558C139.836 11.5476 140.532 11.7926 141.228 12.0909C141.924 12.3892 142.56 12.7656 143.135 13.2202C143.718 13.6676 144.183 14.218 144.531 14.8714C144.886 15.5178 145.063 16.2955 145.063 17.2045C145.063 18.3693 144.762 19.4169 144.158 20.3473C143.554 21.2777 142.688 22.0163 141.558 22.5632C140.429 23.103 139.076 23.3729 137.5 23.3729C136.015 23.3729 134.726 23.1278 133.632 22.6378C132.539 22.1406 131.679 21.4553 131.054 20.5817C130.429 19.7081 130.078 18.696 130 17.5455H132.045C132.116 18.4048 132.4 19.1328 132.897 19.7294C133.394 20.326 134.041 20.7805 134.836 21.093C135.632 21.3984 136.519 21.5511 137.5 21.5511C138.586 21.5511 139.552 21.37 140.397 21.0078C141.25 20.6385 141.917 20.1271 142.4 19.4737C142.89 18.8132 143.135 18.0462 143.135 17.1726C143.135 16.4339 142.943 15.8161 142.56 15.3189C142.176 14.8146 141.64 14.392 140.951 14.0511C140.269 13.7102 139.478 13.4084 138.576 13.1456L135.965 12.3786C134.254 11.8672 132.926 11.1605 131.981 10.2585C131.036 9.35653 130.564 8.20597 130.564 6.80682C130.564 5.63494 130.877 4.60511 131.502 3.71733C132.134 2.82244 132.986 2.12642 134.058 1.62926C135.138 1.125 136.349 0.872868 137.691 0.872868C139.048 0.872868 140.248 1.12145 141.292 1.61861C142.336 2.11577 143.164 2.80114 143.774 3.67471C144.392 4.54119 144.723 5.52841 144.765 6.63636H142.837Z" fill="black" fill-opacity="0.6"/>
</svg>
