<svg width="119" height="46" viewBox="0 0 119 46" fill="none" xmlns="http://www.w3.org/2000/svg">
<path d="M15.5 40.5C9.70022 38.511 0 38 0 38L101 29C101 29 68.4078 31.968 48.5 38C39.7509 40.651 26.5 46 26.5 46C26.5 46 20.0431 42.058 15.5 40.5Z" fill="#444444"/>
<path d="M8.47585 11.2727V13.1903H0.84375V11.2727H8.47585ZM3.06818 7.74432H5.33097V21.7812C5.33097 22.4205 5.42365 22.8999 5.60902 23.2195C5.80078 23.5327 6.04368 23.7436 6.33771 23.8523C6.63814 23.9545 6.95455 24.0057 7.28693 24.0057C7.53622 24.0057 7.74077 23.9929 7.90057 23.9673C8.06037 23.9354 8.18821 23.9098 8.28409 23.8906L8.74432 25.9233C8.59091 25.9808 8.37678 26.0384 8.10192 26.0959C7.82706 26.1598 7.47869 26.1918 7.05682 26.1918C6.41761 26.1918 5.79119 26.0543 5.17756 25.7795C4.57031 25.5046 4.06534 25.0859 3.66264 24.5234C3.26634 23.9609 3.06818 23.2514 3.06818 22.3949V7.74432ZM17.8961 26.3068C16.4771 26.3068 15.253 25.9936 14.2239 25.3672C13.2012 24.7344 12.4118 23.8523 11.8556 22.7209C11.3059 21.5831 11.0311 20.2599 11.0311 18.7514C11.0311 17.2429 11.3059 15.9134 11.8556 14.7628C12.4118 13.6058 13.1852 12.7045 14.176 12.0589C15.1731 11.407 16.3365 11.081 17.666 11.081C18.4331 11.081 19.1905 11.2088 19.9384 11.4645C20.6863 11.7202 21.367 12.1357 21.9806 12.7109C22.5943 13.2798 23.0833 14.0341 23.4476 14.9737C23.812 15.9134 23.9941 17.0703 23.9941 18.4446V19.4034H12.6419V17.4474H21.693C21.693 16.6165 21.5268 15.875 21.1944 15.223C20.8684 14.571 20.4018 14.0565 19.7946 13.6793C19.1937 13.3022 18.4842 13.1136 17.666 13.1136C16.7647 13.1136 15.9849 13.3374 15.3265 13.7848C14.6745 14.2259 14.1728 14.8011 13.8212 15.5107C13.4696 16.2202 13.2939 16.9808 13.2939 17.7926V19.0966C13.2939 20.2088 13.4856 21.1516 13.8691 21.9251C14.2591 22.6921 14.7992 23.277 15.4895 23.6797C16.1799 24.076 16.9821 24.2741 17.8961 24.2741C18.4906 24.2741 19.0275 24.1911 19.5069 24.0249C19.9927 23.8523 20.4114 23.5966 20.763 23.2578C21.1145 22.9126 21.3862 22.4844 21.5779 21.973L23.764 22.5866C23.5339 23.3281 23.1472 23.9801 22.6039 24.5426C22.0605 25.0987 21.3894 25.5334 20.5904 25.8466C19.7914 26.1534 18.8933 26.3068 17.8961 26.3068ZM33.4192 26.3068C32.0385 26.3068 30.8496 25.9808 29.8525 25.3288C28.8553 24.6768 28.0882 23.7788 27.5513 22.6346C27.0144 21.4904 26.7459 20.1832 26.7459 18.7131C26.7459 17.2173 27.0208 15.8974 27.5705 14.7532C28.1266 13.6026 28.9 12.7045 29.8908 12.0589C30.888 11.407 32.0513 11.081 33.3809 11.081C34.4164 11.081 35.3496 11.2727 36.1806 11.6562C37.0115 12.0398 37.6923 12.5767 38.2228 13.267C38.7534 13.9574 39.0826 14.7628 39.2104 15.6832H36.9476C36.775 15.0121 36.3915 14.4176 35.7971 13.8999C35.209 13.3757 34.4164 13.1136 33.4192 13.1136C32.5371 13.1136 31.7637 13.3437 31.0989 13.804C30.4405 14.2578 29.926 14.9002 29.5552 15.7312C29.1909 16.5558 29.0087 17.5241 29.0087 18.6364C29.0087 19.7741 29.1877 20.7649 29.5456 21.6087C29.91 22.4524 30.4213 23.1076 31.0797 23.5742C31.7445 24.0408 32.5243 24.2741 33.4192 24.2741C34.0073 24.2741 34.541 24.1719 35.0204 23.9673C35.4998 23.7628 35.9057 23.4688 36.2381 23.0852C36.5705 22.7017 36.807 22.2415 36.9476 21.7045H39.2104C39.0826 22.5739 38.7662 23.3569 38.2612 24.0536C37.7626 24.744 37.101 25.2937 36.2765 25.7028C35.4583 26.1055 34.5059 26.3068 33.4192 26.3068ZM44.6277 20.6307L44.5893 17.831H45.0495L51.4927 11.2727H54.2924L47.4274 18.2145H47.2356L44.6277 20.6307ZM42.5183 26V6.36364H44.7811V26H42.5183ZM51.8762 26L46.1234 18.7131L47.7342 17.1406L54.7527 26H51.8762ZM57.2048 26V11.2727H59.3909V13.4972H59.5443C59.8128 12.7685 60.2986 12.1772 61.0017 11.7234C61.7048 11.2695 62.4974 11.0426 63.3795 11.0426C63.5457 11.0426 63.7535 11.0458 64.0028 11.0522C64.252 11.0586 64.4406 11.0682 64.5684 11.081V13.3821C64.4917 13.3629 64.316 13.3342 64.0411 13.2958C63.7726 13.2511 63.4882 13.2287 63.1878 13.2287C62.4719 13.2287 61.8327 13.3789 61.2702 13.6793C60.714 13.9734 60.273 14.3825 59.947 14.9066C59.6274 15.4244 59.4676 16.0156 59.4676 16.6804V26H57.2048ZM72.7854 26.3068C71.4559 26.3068 70.2893 25.9904 69.2858 25.3576C68.2886 24.7248 67.5088 23.8395 66.9463 22.7017C66.3902 21.5639 66.1121 20.2344 66.1121 18.7131C66.1121 17.179 66.3902 15.8398 66.9463 14.6957C67.5088 13.5515 68.2886 12.663 69.2858 12.0302C70.2893 11.3974 71.4559 11.081 72.7854 11.081C74.115 11.081 75.2783 11.3974 76.2755 12.0302C77.279 12.663 78.0589 13.5515 78.615 14.6957C79.1775 15.8398 79.4587 17.179 79.4587 18.7131C79.4587 20.2344 79.1775 21.5639 78.615 22.7017C78.0589 23.8395 77.279 24.7248 76.2755 25.3576C75.2783 25.9904 74.115 26.3068 72.7854 26.3068ZM72.7854 24.2741C73.7954 24.2741 74.6263 24.0153 75.2783 23.4975C75.9303 22.9798 76.4129 22.299 76.7261 21.4553C77.0393 20.6115 77.1959 19.6974 77.1959 18.7131C77.1959 17.7287 77.0393 16.8114 76.7261 15.9613C76.4129 15.1112 75.9303 14.424 75.2783 13.8999C74.6263 13.3757 73.7954 13.1136 72.7854 13.1136C71.7755 13.1136 70.9445 13.3757 70.2925 13.8999C69.6405 14.424 69.1579 15.1112 68.8447 15.9613C68.5315 16.8114 68.3749 17.7287 68.3749 18.7131C68.3749 19.6974 68.5315 20.6115 68.8447 21.4553C69.1579 22.299 69.6405 22.9798 70.2925 23.4975C70.9445 24.0153 71.7755 24.2741 72.7854 24.2741ZM85.7485 26L81.2613 11.2727H83.6391L86.8224 22.5483H86.9758L90.1206 11.2727H92.5368L95.6434 22.5099H95.7968L98.98 11.2727H101.358L96.8707 26H94.6462L91.4246 14.6861H91.1945L87.9729 26H85.7485ZM106.612 17.1406V26H104.349V11.2727H106.535V13.5739H106.727C107.072 12.826 107.597 12.2251 108.3 11.7713C109.003 11.3111 109.91 11.081 111.023 11.081C112.02 11.081 112.892 11.2855 113.64 11.6946C114.388 12.0973 114.97 12.7109 115.385 13.5355C115.801 14.3537 116.008 15.3892 116.008 16.642V26H113.746V16.7955C113.746 15.6385 113.445 14.7372 112.844 14.0916C112.244 13.4396 111.419 13.1136 110.371 13.1136C109.648 13.1136 109.003 13.2702 108.434 13.5835C107.871 13.8967 107.427 14.3537 107.101 14.9545C106.775 15.5554 106.612 16.2841 106.612 17.1406Z" fill="#444444"/>
</svg>
